<?xml version="1.0" encoding="UTF-8" standalone="no"?>
<!-- Created with Inkscape (http://www.inkscape.org/) -->

<svg
   xmlns:dc="http://purl.org/dc/elements/1.1/"
   xmlns:cc="http://creativecommons.org/ns#"
   xmlns:rdf="http://www.w3.org/1999/02/22-rdf-syntax-ns#"
   xmlns:svg="http://www.w3.org/2000/svg"
   xmlns="http://www.w3.org/2000/svg"
   xmlns:sodipodi="http://sodipodi.sourceforge.net/DTD/sodipodi-0.dtd"
   xmlns:inkscape="http://www.inkscape.org/namespaces/inkscape"
   width="900mm"
   height="1250mm"
   viewBox="0 0 3188.9764 4429.1338"
   id="svg20647"
   version="1.1"
   inkscape:version="0.91 r13725"
   sodipodi:docname="laser_C-mdf_9mm-1250x900-juan_pablo.svg">
  <defs
     id="defs20649" />
  <sodipodi:namedview
     id="base"
     pagecolor="#ffffff"
     bordercolor="#666666"
     borderopacity="1.0"
     inkscape:pageopacity="0.0"
     inkscape:pageshadow="2"
     inkscape:zoom="0.057833903"
     inkscape:cx="1639.3824"
     inkscape:cy="2174.4586"
     inkscape:document-units="mm"
     inkscape:current-layer="layer1"
     showgrid="false"
     inkscape:window-width="1366"
     inkscape:window-height="715"
     inkscape:window-x="0"
     inkscape:window-y="0"
     inkscape:window-maximized="1" />
  <metadata
     id="metadata20652">
    <rdf:RDF>
      <cc:Work
         rdf:about="">
        <dc:format>image/svg+xml</dc:format>
        <dc:type
           rdf:resource="http://purl.org/dc/dcmitype/StillImage" />
        <dc:title></dc:title>
        <cc:license
           rdf:resource="http://creativecommons.org/licenses/by-sa/3.0/" />
      </cc:Work>
      <cc:License
         rdf:about="http://creativecommons.org/licenses/by-sa/3.0/">
        <cc:permits
           rdf:resource="http://creativecommons.org/ns#Reproduction" />
        <cc:permits
           rdf:resource="http://creativecommons.org/ns#Distribution" />
        <cc:requires
           rdf:resource="http://creativecommons.org/ns#Notice" />
        <cc:requires
           rdf:resource="http://creativecommons.org/ns#Attribution" />
        <cc:permits
           rdf:resource="http://creativecommons.org/ns#DerivativeWorks" />
        <cc:requires
           rdf:resource="http://creativecommons.org/ns#ShareAlike" />
      </cc:License>
    </rdf:RDF>
  </metadata>
  <g
     inkscape:label="Capa 1"
     inkscape:groupmode="layer"
     id="layer1"
     transform="translate(0,3376.7717)">
    <g
       style="display:inline;fill:none;stroke:#000000;stroke-width:0.49999959;stroke-miterlimit:4;stroke-dasharray:none"
       id="g9863"
       transform="matrix(3.54331,0,0,3.54331,286.1974,-7014.0365)">
      <path
         style="display:inline;opacity:1;fill:none;fill-opacity:1;stroke:#000000;stroke-width:0.49999959;stroke-linecap:round;stroke-linejoin:round;stroke-miterlimit:4;stroke-dasharray:none;stroke-dashoffset:0;stroke-opacity:1"
         d="m 103.22852,1120.5156 0,30 -9.000004,0 0,-29.9961 c -21.167824,0.036 -41.461062,8.4591 -56.431641,23.4297 l -90.136719,90.1367 c -15.002856,15.0029 -23.43164,35.3491 -23.43164,56.5664 l 0,22.3809 c 0,2.216 1.784,4 4,4 l 14,0 0,8 0,6 0,6 -9,0 0,-6 -5,0 c -2.216,0 -4,1.784 -4,4 l 0,8.7891 c 0,2.216 1.784,4 4,4 l 14,0 0,8 0,6 0,6 -9,0 0,-6 -5,0 c -2.216,0 -4,1.784 -4,4 l 0,8.7871 c 0,2.216 1.784,4 4,4 l 14,0 0,8 0,6 0,6 -9,0 0,-6 -5,0 c -2.216,0 -4,1.784 -4,4 l 0,8.7871 c 0,2.216 1.784,4 4,4 l 14,0 0,8 0,6 0,6 -9,0 0,-6 -5,0 c -2.216,0 -4,1.784 -4,4 l 0,8.789 c 0,2.216 1.784,4 4,4 l 14,0 0,8 0,6 0,6 -9,0 0,-6 -5,0 c -2.216,0 -4,1.784 -4,4 l 0,8.7872 c 0,2.216 1.784,4 4,4 l 14,0 0,8 0,6 0,6 -9,0 0,-6 -5,0 c -2.216,0 -4,1.784 -4,4 l 0,8.7871 c 0,2.216 1.784,4 4,4 l 14,0 0,8 0,6 0,6 -9,0 0,-6 -5,0 c -2.216,0 -4,1.784 -4,4 l 0,8.7871 c 0,2.216 1.784,4 4,4 l 14,0 0,8 0,6 0,6 -9,0 0,-6 -5,0 c -2.216,0 -4,1.784 -4,4 l 0,8.789 c 0,2.216 1.784,4 4,4 l 14,0 0,8 0,6 0,6 -9,0 0,-6 -5,0 c -2.216,0 -4,1.784 -4,4 l 0,489.1797 0,200 60,0 c 0,-3.866 3.134007,-7 6.9999996,-7 l 306.0000044,0 0,-93.0039 9,0 0,93.0039 15,0 0,-9 45.65039,0 0,-9.5019 -2.30079,0 0,-4.5 2.30079,0 0,-4 4.69921,0 0,4 2.30079,0 0,4.5 -2.30079,0 0,9.5019 45.6504,0 0,9 15,0 0,-93.0039 9,0 0,93.0039 306,0 c 3.86599,0 7,3.134 7,7 l 60,0 0,-200 0,-489.1797 c 0,-2.216 -1.784,-4 -4,-4 l -5,0 0,6 -9,0 0,-6 0,-6 0,-8 14,0 c 2.216,0 4,-1.784 4,-4 l 0,-8.789 c 0,-2.216 -1.784,-4 -4,-4 l -5,0 0,6 -9,0 0,-6 0,-6 0,-8 14,0 c 2.216,0 4,-1.784 4,-4 l 0,-8.7871 c 0,-2.216 -1.784,-4 -4,-4 l -5,0 0,6 -9,0 0,-6 0,-6 0,-8 14,0 c 2.216,0 4,-1.784 4,-4 l 0,-8.7871 c 0,-2.216 -1.784,-4 -4,-4 l -5,0 0,6 -9,0 0,-6 0,-6 0,-8 14,0 c 2.216,0 4,-1.784 4,-4 l 0,-8.7872 c 0,-2.216 -1.784,-4 -4,-4 l -5,0 0,6 -9,0 0,-6 0,-6 0,-8 14,0 c 2.216,0 4,-1.784 4,-4 l 0,-8.789 c 0,-2.216 -1.784,-4 -4,-4 l -5,0 0,6 -9,0 0,-6 0,-6 0,-8 14,0 c 2.216,0 4,-1.784 4,-4 l 0,-8.7871 c 0,-2.216 -1.784,-4 -4,-4 l -5,0 0,6 -9,0 0,-6 0,-6 0,-8 14,0 c 2.216,0 4,-1.784 4,-4 l 0,-8.7871 c 0,-2.216 -1.784,-4 -4,-4 l -5,0 0,6 -9,0 0,-6 0,-6 0,-8 14,0 c 2.216,0 4,-1.784 4,-4 l 0,-8.7891 c 0,-2.216 -1.784,-4 -4,-4 l -5,0 0,6 -9,0 0,-6 0,-6 0,-8 14,0 c 2.216,0 4,-1.784 4,-4 l 0,-22.3809 c 0,-21.2173 -8.42882,-41.5635 -23.43164,-56.5664 l -90.13672,-90.1367 c -14.97059,-14.9706 -35.26382,-23.3934 -56.43164,-23.4297 l 0,29.9961 -9,0 0,-30 -532,0 z m -0.57813,100 533.15625,0 78.42188,78.4239 0,551.9785 0,31.7011 0,11.2637 -70,58.7363 0,54.0371 0,63.8594 0,26.5 0,63.5 -9,0 0,-48.1386 0,-15.3614 0,-11.3594 c 0,-2.5704 -2.07007,-4.6406 -4.64063,-4.6406 l -26.71875,0 c -2.57055,0 -4.64062,2.0702 -4.64062,4.6406 l 0,11.3594 -67,0 0,-9 -60,0 0,9 -103,0 0,-26.5 -266,0 0,90 -9.000004,0 0,-90 0,-63.8594 0,-54.0371 -70,-58.7363 0,-11.2637 0,-31.7011 0,-551.9785 78.421874,-78.4239 z"
         id="path9853"
         inkscape:connector-curvature="0" />
      <circle
         style="display:inline;opacity:1;fill:none;fill-opacity:1;stroke:#000000;stroke-width:0.49999959;stroke-linecap:round;stroke-linejoin:round;stroke-miterlimit:4;stroke-dasharray:none;stroke-dashoffset:0;stroke-opacity:1"
         id="circle9855"
         cx="119.22852"
         cy="2092.5166"
         r="2.5" />
      <circle
         r="2.5"
         cy="2092.5166"
         cx="216.22925"
         id="circle9857"
         style="display:inline;opacity:1;fill:none;fill-opacity:1;stroke:#000000;stroke-width:0.49999959;stroke-linecap:round;stroke-linejoin:round;stroke-miterlimit:4;stroke-dasharray:none;stroke-dashoffset:0;stroke-opacity:1" />
      <circle
         style="display:inline;opacity:1;fill:none;fill-opacity:1;stroke:#000000;stroke-width:0.49999959;stroke-linecap:round;stroke-linejoin:round;stroke-miterlimit:4;stroke-dasharray:none;stroke-dashoffset:0;stroke-opacity:1"
         id="circle9859"
         cx="334.22925"
         cy="2092.5166"
         r="2.5" />
      <circle
         style="opacity:1;fill:none;fill-opacity:1;stroke:#000000;stroke-width:0.49999959;stroke-linecap:round;stroke-linejoin:round;stroke-miterlimit:4;stroke-dasharray:none;stroke-dashoffset:0;stroke-opacity:1"
         id="circle9861"
         cx="617.22852"
         cy="2092.5166"
         r="2.5" />
    </g>
    <path
       id="path14483"
       d="m 2724.6275,-2365.0822 -88.5827,0 0,-32.2498 88.5756,0 c -0.099,-29.3603 -23.7589,-52.9697 -53.1425,-52.9697 l -124.0159,0 0,138.1891 -28.3465,0 c -1.9637,0 -3.5433,1.5803 -3.5433,3.5433 l 0,46.063 c 0,1.963 1.5796,3.5434 3.5433,3.5434 l 28.3465,0 0,295.8663 14.1733,0 0,88.5828 -14.1733,0 0,295.8664 -28.3465,0 c -1.9633,0 -3.5433,1.5803 -3.5433,3.5433 l 0,46.063 c 0,1.963 1.58,3.5433 3.5433,3.5433 l 28.3465,0 0,138.1891 124.0159,0 c 29.3829,0 53.0451,-23.6091 53.1425,-52.9696 l -88.5756,0 0,-32.2498 88.5827,0 0,-276.0182 -88.5827,0 0,-32.2498 88.5827,0 0,-276.0182 -88.5827,0 0,-32.2498 88.5827,0 0,-276.0181 z"
       style="display:inline;opacity:1;fill:none;fill-opacity:1;stroke:#000000;stroke-width:1.77165354;stroke-linecap:round;stroke-linejoin:round;stroke-miterlimit:4;stroke-dasharray:none;stroke-dashoffset:0;stroke-opacity:1"
       inkscape:connector-curvature="0" />
    <g
       style="display:inline;fill:none;stroke:#000000;stroke-width:0.49999959;stroke-miterlimit:4;stroke-dasharray:none"
       transform="matrix(3.54331,0,0,3.54331,-10653.545,4548.4517)"
       id="g15219">
      <path
         id="path15221"
         d="m 3354.3166,-2031.6137 -40.9981,34.4004 0,94.5196 c -2e-4,4.1782 -3.5066,12.1419 -9.6601,17.7812 -6.1566,5.6416 -14.3981,8.4387 -22.7168,7.711 l -31.8711,-2.7891 c -7.7384,-0.677 -15.4282,1.7489 -21.3789,6.7422 l 32.1386,38.3008 -6.8945,5.7851 8.5703,10.2129 103.918,123.8457 6.8984,-5.7871 0,-130.7227 -9.0019,0 0,-10.998 -25,0 0,-9 25,0 0,-16.1504 -9.5,0 0,2.3008 -4.5,0 0,-2.3008 -4,0 0,-4.6992 4,0 0,-2.3008 4.5,0 0,2.3008 9.5,0 0,-95.1524 -25,0 0,-9 24.998,0 0,-20.1484 -9.498,0 0,2.3007 -4.5,0 0,-2.3007 -4,0 0,-4.6993 4,0 0,-2.3007 4.5,0 0,2.3007 9.498,0 0,-15.1543 9,0 0,-15 -18,0 z"
         style="display:inline;opacity:1;fill:none;fill-opacity:1;stroke:#000000;stroke-width:0.49999959;stroke-linecap:round;stroke-linejoin:round;stroke-miterlimit:4;stroke-dasharray:none;stroke-dashoffset:0;stroke-opacity:1"
         inkscape:connector-curvature="0" />
      <path
         d="m 3299.9132,-1834.7122 c 1.0118,0.089 1.9909,0.5627 2.6952,1.4023 1.4092,1.679 1.1891,4.1811 -0.4901,5.5899 -1.6791,1.4091 -4.183,1.1909 -5.5918,-0.4883 -1.4091,-1.6792 -1.1891,-4.1831 0.4901,-5.5918 0.8396,-0.7045 1.8847,-1.0006 2.8966,-0.9121 z"
         style="display:inline;opacity:1;fill:none;fill-opacity:1;stroke:#000000;stroke-width:0.49999959;stroke-linecap:round;stroke-linejoin:round;stroke-miterlimit:4;stroke-dasharray:none;stroke-dashoffset:0;stroke-opacity:1"
         id="path15223"
         inkscape:connector-curvature="0" />
    </g>
    <g
       style="display:inline;fill:none;stroke:#000000;stroke-width:0.49999959;stroke-miterlimit:4;stroke-dasharray:none"
       id="g15582"
       transform="matrix(0,-3.54331,3.54331,0,6765.7049,6974.044)">
      <path
         sodipodi:nodetypes="ccsssscccccccccccccccsssscccccccccccccccccccsssscccccccccccccccccccccc"
         inkscape:connector-curvature="0"
         id="path15379"
         d="m 2411.9947,-1520.7791 0,22.623 -7.4995,0 c -0.554,0 -1,0.446 -1,1 l 0,23 c 0,0.554 0.446,1 1,1 l 7.4995,0 0,22.8828 6,0 0,236.1153 13.6992,0 0,-16 0.051,0 9,0 0.051,0 0,16 33.1993,0 0,-15 9,0 0.1,0 0,15 1.9004,0 c 3.878,0 7,-3.122 7,-7 l 0,-36 c 0,-3.878 -3.122,-7 -7,-7 l -2,0 -9,0 0,-24.6504 -9.5,0 0,2.3008 -4.5,0 0,-2.3008 -4,0 0,-4.6992 4,0 0,-2.3008 4.5,0 0,2.3008 9.5,0 0,-127.2715 0,-15 9,0 0.1,0 0,15 1.9003,0 c 3.8781,0 7,-3.122 7,-7 l 0,-36 c 0,-3.878 -3.1219,-7 -7,-7 l -2,0 -9,0 0,-24.6504 -9.5,0 0,2.3008 -4.5,0 0,-2.3008 -4,0 0,-4.6992 4,0 0,-2.3008 4.5,0 0,2.3008 9.5,0 0,-20.6504 -33.1992,0 0,22.623 -0.051,0 -9,0 -0.051,0 0,-22.623 z"
         style="display:inline;opacity:1;fill:none;fill-opacity:1;stroke:#000000;stroke-width:0.49999959;stroke-linecap:round;stroke-linejoin:round;stroke-miterlimit:4;stroke-dasharray:none;stroke-dashoffset:0;stroke-opacity:1" />
      <path
         inkscape:connector-curvature="0"
         d="m 2431.6947,-1335.9568 9.1,0 0,35.1 -9.1,0 z"
         style="display:inline;opacity:1;fill:none;fill-opacity:1;stroke:#000000;stroke-width:0.49999959;stroke-linecap:round;stroke-linejoin:round;stroke-miterlimit:4;stroke-dasharray:none;stroke-dashoffset:0;stroke-opacity:1"
         id="rect15381" />
      <path
         inkscape:connector-curvature="0"
         d="m 2431.6947,-1439.7068 9.1,0 0,35.1 -9.1,0 z"
         style="display:inline;opacity:1;fill:none;fill-opacity:1;stroke:#000000;stroke-width:0.49999959;stroke-linecap:round;stroke-linejoin:round;stroke-miterlimit:4;stroke-dasharray:none;stroke-dashoffset:0;stroke-opacity:1"
         id="rect15383" />
      <path
         inkscape:connector-curvature="0"
         d="m 2438.7447,-1254.6568 a 2.5,2.5 0 0 1 -2.5,2.5 2.5,2.5 0 0 1 -2.5,-2.5 2.5,2.5 0 0 1 2.5,-2.5 2.5,2.5 0 0 1 2.5,2.5 z"
         style="display:inline;opacity:1;fill:none;fill-opacity:1;stroke:#000000;stroke-width:0.49999959;stroke-linecap:round;stroke-linejoin:round;stroke-miterlimit:4;stroke-dasharray:none;stroke-dashoffset:0;stroke-opacity:1"
         id="circle15385" />
      <path
         inkscape:connector-curvature="0"
         d="m 2438.7447,-1382.1568 a 2.5,2.5 0 0 1 -2.5,2.5 2.5,2.5 0 0 1 -2.5,-2.5 2.5,2.5 0 0 1 2.5,-2.5 2.5,2.5 0 0 1 2.5,2.5 z"
         style="display:inline;opacity:1;fill:none;fill-opacity:1;stroke:#000000;stroke-width:0.49999959;stroke-linecap:round;stroke-linejoin:round;stroke-miterlimit:4;stroke-dasharray:none;stroke-dashoffset:0;stroke-opacity:1"
         id="circle15387" />
      <path
         inkscape:connector-curvature="0"
         d="m 2438.7447,-1462.1568 a 2.5,2.5 0 0 1 -2.5,2.5 2.5,2.5 0 0 1 -2.5,-2.5 2.5,2.5 0 0 1 2.5,-2.5 2.5,2.5 0 0 1 2.5,2.5 z"
         style="display:inline;opacity:1;fill:none;fill-opacity:1;stroke:#000000;stroke-width:0.49999959;stroke-linecap:round;stroke-linejoin:round;stroke-miterlimit:4;stroke-dasharray:none;stroke-dashoffset:0;stroke-opacity:1"
         id="circle15389" />
    </g>
    <g
       style="display:inline;fill:none;stroke:#000000;stroke-width:0.49999959;stroke-miterlimit:4;stroke-dasharray:none"
       id="g15680"
       transform="matrix(0,-3.54331,3.54331,0,4143.366,7232.6826)">
      <path
         inkscape:connector-curvature="0"
         id="rect5362-5"
         d="m 2419.0047,-879.02942 -15.4375,12.9531 7.3907,8.8066 1.7617,-1.4785 2.8926,3.4473 -1.7618,1.4785 2.5704,3.0644 -3.6016,3.0215 -2.5703,-3.0644 -1.7617,1.4785 -2.8926,-3.4473 1.7617,-1.4785 -7.3906,-8.8066 -130.7637,109.7246 -130.7656,-109.7246 -7.3887,8.8066 1.7617,1.4785 -2.8925,3.4473 -1.7618,-1.4785 -2.5722,3.0644 -3.5996,-3.0215 2.5703,-3.0644 -1.7617,-1.4785 2.8925,-3.4473 1.7618,1.4785 7.3886,-8.8066 -15.4355,-12.9512 -13.8809,16.543 c -5.3416,6.3657 -4.5162,15.7892 1.8496,21.1308 l 11.834,9.9297 0,30.5547 5.0957,4.2774 16.0703,-19.1524 6.8946,5.7852 -16.0704,19.1523 36.7696,30.8535 16.0703,-19.1504 6.8945,5.7832 -16.0703,19.1524 32.0957,26.9316 0,44.0215 12,10.0684 0,78.6582 -8.75,7.3418 -68.3652,57.3652 -54.3672,0 -0.039,0 c -15.3827,2e-4 -27.8525,12.4708 -27.8516,27.8535 3e-4,15.3819 12.4697,27.8514 27.8516,27.8516 l -1.6738,-19.1387 8.9648,-0.7851 1.6133,18.4335 0.1308,1.4903 345.4727,0 0.1309,-1.4981 1.6132,-18.4257 8.9649,0.7851 -1.6738,19.1367 c 15.3811,0 27.8493,-12.4704 27.8496,-27.8515 9e-4,-15.3827 -12.4689,-27.8534 -27.8516,-27.8536 l -0.055,0 -54.3496,0 -68.3652,-57.3652 -8.75,-7.3418 0,-78.6562 12,-10.0684 0,-44.0234 32.0957,-26.9317 -16.0703,-19.1523 6.8945,-5.7832 16.0703,19.1504 36.7696,-30.8535 -16.0703,-19.1524 6.8945,-5.7851 16.0703,19.1523 5.0957,-4.2773 0,-30.5547 11.834,-9.9297 c 6.3658,-5.3416 7.1892,-14.7652 1.8476,-21.1309 l -13.8789,-16.5429 z"
         style="display:inline;opacity:1;fill:none;fill-opacity:1;stroke:#000000;stroke-width:0.49999959;stroke-linecap:round;stroke-linejoin:round;stroke-miterlimit:4;stroke-dasharray:none;stroke-dashoffset:0;stroke-opacity:1" />
      <path
         d="m 2218.902,-546.58022 9.1,0 0,50.5 -9.1,0 z"
         style="display:inline;opacity:1;fill:none;fill-opacity:1;stroke:#000000;stroke-width:0.49999959;stroke-linecap:round;stroke-linejoin:round;stroke-miterlimit:4;stroke-dasharray:none;stroke-dashoffset:0;stroke-opacity:1"
         id="rect8643-4"
         inkscape:connector-curvature="0" />
      <path
         d="m 2310.402,-546.58022 9.1,0 0,50.5 -9.1,0 z"
         style="display:inline;opacity:1;fill:none;fill-opacity:1;stroke:#000000;stroke-width:0.49999959;stroke-linecap:round;stroke-linejoin:round;stroke-miterlimit:4;stroke-dasharray:none;stroke-dashoffset:0;stroke-opacity:1"
         id="rect8645-0"
         inkscape:connector-curvature="0" />
      <path
         d="m 2225.952,-558.08022 a 2.5,2.5 0 0 1 -2.5,2.5 2.5,2.5 0 0 1 -2.5,-2.5 2.5,2.5 0 0 1 2.5,-2.5 2.5,2.5 0 0 1 2.5,2.5 z"
         style="display:inline;opacity:1;fill:none;fill-opacity:1;stroke:#000000;stroke-width:0.49999959;stroke-linecap:round;stroke-linejoin:round;stroke-miterlimit:4;stroke-dasharray:none;stroke-dashoffset:0;stroke-opacity:1"
         id="path4758-9-5"
         inkscape:connector-curvature="0" />
      <path
         d="m 2317.452,-558.08022 a 2.5,2.5 0 0 1 -2.5,2.5 2.5,2.5 0 0 1 -2.5,-2.5 2.5,2.5 0 0 1 2.5,-2.5 2.5,2.5 0 0 1 2.5,2.5 z"
         style="display:inline;opacity:1;fill:none;fill-opacity:1;stroke:#000000;stroke-width:0.49999959;stroke-linecap:round;stroke-linejoin:round;stroke-miterlimit:4;stroke-dasharray:none;stroke-dashoffset:0;stroke-opacity:1"
         id="circle8724-9"
         inkscape:connector-curvature="0" />
      <path
         d="m 2218.902,-753.20132 9.1,0 0,50.5 -9.1,0 z"
         style="display:inline;opacity:1;fill:none;fill-opacity:1;stroke:#000000;stroke-width:0.49999959;stroke-linecap:round;stroke-linejoin:round;stroke-miterlimit:4;stroke-dasharray:none;stroke-dashoffset:0;stroke-opacity:1"
         id="rect8589-4"
         inkscape:connector-curvature="0" />
      <path
         d="m 2310.402,-753.20132 9.1,0 0,50.5 -9.1,0 z"
         style="display:inline;opacity:1;fill:none;fill-opacity:1;stroke:#000000;stroke-width:0.49999959;stroke-linecap:round;stroke-linejoin:round;stroke-miterlimit:4;stroke-dasharray:none;stroke-dashoffset:0;stroke-opacity:1"
         id="rect8611-6"
         inkscape:connector-curvature="0" />
      <path
         d="m 2225.952,-764.70132 a 2.5,2.5 0 0 1 -2.5,2.5 2.5,2.5 0 0 1 -2.5,-2.5 2.5,2.5 0 0 1 2.5,-2.5 2.5,2.5 0 0 1 2.5,2.5 z"
         style="display:inline;opacity:1;fill:none;fill-opacity:1;stroke:#000000;stroke-width:0.49999959;stroke-linecap:round;stroke-linejoin:round;stroke-miterlimit:4;stroke-dasharray:none;stroke-dashoffset:0;stroke-opacity:1"
         id="circle8722-92"
         inkscape:connector-curvature="0" />
      <path
         d="m 2317.452,-764.70132 a 2.5,2.5 0 0 1 -2.5,2.5 2.5,2.5 0 0 1 -2.5,-2.5 2.5,2.5 0 0 1 2.5,-2.5 2.5,2.5 0 0 1 2.5,2.5 z"
         style="display:inline;opacity:1;fill:none;fill-opacity:1;stroke:#000000;stroke-width:0.49999959;stroke-linecap:round;stroke-linejoin:round;stroke-miterlimit:4;stroke-dasharray:none;stroke-dashoffset:0;stroke-opacity:1"
         id="circle8726-24"
         inkscape:connector-curvature="0" />
      <path
         d="m 2269.201,-715.42782 c 6.925,0 12.5,5.575 12.5,12.5 l 0,175 c 0,6.925 -5.575,12.5 -12.5,12.5 -6.925,0 -12.5,-5.575 -12.5,-12.5 l 0,-175 c 0,-6.925 5.575,-12.5 12.5,-12.5 z"
         style="display:inline;opacity:1;fill:none;fill-opacity:1;stroke:#000000;stroke-width:0.49999959;stroke-linecap:round;stroke-linejoin:round;stroke-miterlimit:4;stroke-dasharray:none;stroke-dashoffset:0;stroke-opacity:1"
         id="rect15618-7"
         inkscape:connector-curvature="0" />
    </g>
    <path
       style="display:inline;opacity:1;fill:none;fill-opacity:1;stroke:#000000;stroke-width:1.77165354;stroke-linecap:round;stroke-linejoin:round;stroke-miterlimit:4;stroke-dasharray:none;stroke-dashoffset:0;stroke-opacity:1"
       d="m 1350.2477,-2238.5754 107.0328,0 0,-31.8898 119.2271,0 0,-33.6615 -8.1525,0 0,-15.9449 8.1525,0 0,-14.1732 8.3253,0 8.3254,0 0,14.1732 8.1524,0 0,15.9449 -8.1524,0 0,33.6615 71.3991,0 0,26.5748 c 0,1.963 1.5803,3.5433 3.5433,3.5433 l 116.9292,0 c 1.963,0 3.5433,-1.5803 3.5433,-3.5433 l 0,-26.5748 71.3992,0 0,-33.6615 -8.1525,0 0,-15.9449 8.1525,0 0,-14.1732 16.6507,0 0,14.1732 8.1524,0 0,15.9449 -8.1524,0 0,33.6615 155.5527,0 0,26.5748 c 0,1.963 1.5803,3.5433 3.5433,3.5433 l 116.9292,0 c 1.963,0 3.5434,-1.5803 3.5434,-3.5433 l 0,-26.5748 155.5523,0 0,-33.6615 -8.1524,0 0,-15.9449 8.1524,0 0,-14.1732 16.6507,0 0,14.1732 8.1525,0 0,15.9449 -8.1525,0 0,33.6615 78.4794,0 0,1.9998 0,15.7167 0,8.8583 c 0,1.963 1.58,3.5433 3.5433,3.5433 l 49.6064,0 c 1.9629,0 3.5433,-1.5803 3.5433,-3.5433 l 0,-8.8583 0,-15.7167 0,-296.0946 0,-15.9449 0,-8.8583 c 0,-1.963 -1.5804,-3.5433 -3.5433,-3.5433 l -49.6064,0 c -1.9633,0 -3.5433,1.5803 -3.5433,3.5433 l 0,8.8583 0,15.9449 0,1.7716 -78.4794,0 0,33.6615 8.1525,0 0,15.9449 -8.1525,0 0,14.1733 -16.6507,0 0,-14.1733 -8.1524,0 0,-15.9449 8.1524,0 0,-33.6615 -155.5523,0 0,-26.5748 c 0,-1.963 -1.5804,-3.5433 -3.5434,-3.5433 l -116.9292,0 c -1.963,0 -3.5433,1.5803 -3.5433,3.5433 l 0,26.5748 -155.5527,0 0,33.6615 8.1524,0 0,15.9449 -8.1524,0 0,14.1733 -16.6507,0 0,-14.1733 -8.1525,0 0,-15.9449 8.1525,0 0,-33.6615 -71.3992,0 0,-26.5748 c 0,-1.963 -1.5803,-3.5433 -3.5433,-3.5433 l -116.9292,0 c -1.963,0 -3.5433,1.5803 -3.5433,3.5433 l 0,26.5748 -71.3991,0 0,33.6615 8.1524,0 0,15.9449 -8.1524,0 0,14.1733 -8.3254,0 -8.3253,0 0,-14.1733 -8.1525,0 0,-15.9449 8.1525,0 0,-33.6615 -119.2271,0 0,-31.8898 -107.0328,0 88.1193,105.5379 14.7402,-12.3668 -5.2385,-6.2423 12.2078,-10.2493 5.2459,6.2422 10.8585,-9.1074 10.699,12.7545 -10.8585,9.1145 5.2391,6.2422 -12.2148,10.2494 -5.2388,-6.2422 -14.7685,12.3877 49.8692,59.731 -49.8759,59.7381 14.7752,12.3945 5.2388,-6.2422 12.2148,10.2493 -5.2391,6.2423 10.8585,9.1141 -10.7061,12.7548 -10.8514,-9.1144 -5.2459,6.2493 -12.2148,-10.2494 5.2458,-6.2493 -14.7479,-12.3739 -88.1119,105.5382 z"
       id="path15610"
       inkscape:connector-curvature="0" />
    <g
       style="display:inline;fill:none;stroke:#000000;stroke-width:0.49999959;stroke-miterlimit:4;stroke-dasharray:none"
       id="g15707"
       transform="matrix(0,-3.54331,3.54331,0,6765.7049,6633.8863)">
      <path
         style="display:inline;opacity:1;fill:none;fill-opacity:1;stroke:#000000;stroke-width:0.49999959;stroke-linecap:round;stroke-linejoin:round;stroke-miterlimit:4;stroke-dasharray:none;stroke-dashoffset:0;stroke-opacity:1"
         d="m 2411.9947,-1520.7791 0,22.623 -7.4995,0 c -0.554,0 -1,0.446 -1,1 l 0,23 c 0,0.554 0.446,1 1,1 l 7.4995,0 0,22.8828 6,0 0,236.1153 13.6992,0 0,-16 0.051,0 9,0 0.051,0 0,16 33.1993,0 0,-15 9,0 0.1,0 0,15 1.9004,0 c 3.878,0 7,-3.122 7,-7 l 0,-36 c 0,-3.878 -3.122,-7 -7,-7 l -2,0 -9,0 0,-24.6504 -9.5,0 0,2.3008 -4.5,0 0,-2.3008 -4,0 0,-4.6992 4,0 0,-2.3008 4.5,0 0,2.3008 9.5,0 0,-127.2715 0,-15 9,0 0.1,0 0,15 1.9003,0 c 3.8781,0 7,-3.122 7,-7 l 0,-36 c 0,-3.878 -3.1219,-7 -7,-7 l -2,0 -9,0 0,-24.6504 -9.5,0 0,2.3008 -4.5,0 0,-2.3008 -4,0 0,-4.6992 4,0 0,-2.3008 4.5,0 0,2.3008 9.5,0 0,-20.6504 -33.1992,0 0,22.623 -0.051,0 -9,0 -0.051,0 0,-22.623 z"
         id="path15709"
         inkscape:connector-curvature="0"
         sodipodi:nodetypes="ccsssscccccccccccccccsssscccccccccccccccccccsssscccccccccccccccccccccc" />
      <path
         id="path15711"
         style="display:inline;opacity:1;fill:none;fill-opacity:1;stroke:#000000;stroke-width:0.49999959;stroke-linecap:round;stroke-linejoin:round;stroke-miterlimit:4;stroke-dasharray:none;stroke-dashoffset:0;stroke-opacity:1"
         d="m 2431.6947,-1335.9568 9.1,0 0,35.1 -9.1,0 z"
         inkscape:connector-curvature="0" />
      <path
         id="path15713"
         style="display:inline;opacity:1;fill:none;fill-opacity:1;stroke:#000000;stroke-width:0.49999959;stroke-linecap:round;stroke-linejoin:round;stroke-miterlimit:4;stroke-dasharray:none;stroke-dashoffset:0;stroke-opacity:1"
         d="m 2431.6947,-1439.7068 9.1,0 0,35.1 -9.1,0 z"
         inkscape:connector-curvature="0" />
      <path
         id="path15715"
         style="display:inline;opacity:1;fill:none;fill-opacity:1;stroke:#000000;stroke-width:0.49999959;stroke-linecap:round;stroke-linejoin:round;stroke-miterlimit:4;stroke-dasharray:none;stroke-dashoffset:0;stroke-opacity:1"
         d="m 2438.7447,-1254.6568 a 2.5,2.5 0 0 1 -2.5,2.5 2.5,2.5 0 0 1 -2.5,-2.5 2.5,2.5 0 0 1 2.5,-2.5 2.5,2.5 0 0 1 2.5,2.5 z"
         inkscape:connector-curvature="0" />
      <path
         id="path15717"
         style="display:inline;opacity:1;fill:none;fill-opacity:1;stroke:#000000;stroke-width:0.49999959;stroke-linecap:round;stroke-linejoin:round;stroke-miterlimit:4;stroke-dasharray:none;stroke-dashoffset:0;stroke-opacity:1"
         d="m 2438.7447,-1382.1568 a 2.5,2.5 0 0 1 -2.5,2.5 2.5,2.5 0 0 1 -2.5,-2.5 2.5,2.5 0 0 1 2.5,-2.5 2.5,2.5 0 0 1 2.5,2.5 z"
         inkscape:connector-curvature="0" />
      <path
         id="path15719"
         style="display:inline;opacity:1;fill:none;fill-opacity:1;stroke:#000000;stroke-width:0.49999959;stroke-linecap:round;stroke-linejoin:round;stroke-miterlimit:4;stroke-dasharray:none;stroke-dashoffset:0;stroke-opacity:1"
         d="m 2438.7447,-1462.1568 a 2.5,2.5 0 0 1 -2.5,2.5 2.5,2.5 0 0 1 -2.5,-2.5 2.5,2.5 0 0 1 2.5,-2.5 2.5,2.5 0 0 1 2.5,2.5 z"
         inkscape:connector-curvature="0" />
    </g>
    <g
       style="display:inline;fill:none;stroke:#000000;stroke-width:0.49999959;stroke-miterlimit:4;stroke-dasharray:none"
       id="g15748"
       transform="matrix(0,-3.54331,3.54331,0,3028.8295,6530.7501)">
      <path
         d="m 2020.8016,-546.55558 9.1,0 0,25 -9.1,0 z"
         style="display:inline;opacity:1;fill:none;fill-opacity:1;stroke:#000000;stroke-width:0.49999959;stroke-linecap:round;stroke-linejoin:round;stroke-miterlimit:4;stroke-dasharray:none;stroke-dashoffset:0;stroke-opacity:1"
         id="rect4151-7"
         inkscape:connector-curvature="0" />
      <path
         d="m 2112.3016,-546.55558 9.1,0 0,25 -9.1,0 z"
         style="display:inline;opacity:1;fill:none;fill-opacity:1;stroke:#000000;stroke-width:0.49999959;stroke-linecap:round;stroke-linejoin:round;stroke-miterlimit:4;stroke-dasharray:none;stroke-dashoffset:0;stroke-opacity:1"
         id="rect4153-5"
         inkscape:connector-curvature="0" />
      <path
         sodipodi:nodetypes="cccccccccccccccccccccccccccccccccccccccccccccccccccccccc"
         inkscape:connector-curvature="0"
         id="path12624-6-4"
         d="m 1921.2991,-660.50607 -13.8808,16.5429 c -5.3417,6.3657 -4.5162,15.7893 1.8496,21.1309 l 11.834,9.9297 0,30.5547 5.0957,4.2773 16.0703,-19.1523 6.8945,5.7851 -16.0703,19.1524 36.7695,30.85349 16.0703,-19.1504 6.8946,5.7832 -16.0703,19.1524 94.3437,79.164 0,0 0,0 94.3457,-79.164 -16.0703,-19.1524 6.8945,-5.7832 16.0703,19.1504 36.7696,-30.85349 -16.0703,-19.1524 6.8945,-5.7851 16.0703,19.1523 5.0957,-4.2773 0,-30.5547 11.834,-9.9297 c 6.3658,-5.3416 7.1893,-14.7652 1.8477,-21.1309 l -13.879,-16.5429 -15.4375,12.9531 7.3907,8.8066 1.7617,-1.4785 2.8926,3.4473 -1.7618,1.4785 2.5704,3.0645 -3.6016,3.0214 -2.5703,-3.0644 -1.7617,1.4785 -2.8926,-3.4473 1.7617,-1.4785 -7.3906,-8.8066 -130.7637,109.72459 -130.7656,-109.72459 -7.3887,8.8066 1.7617,1.4785 -2.8925,3.4473 -1.7618,-1.4785 -2.5722,3.0644 -3.5996,-3.0214 2.5703,-3.0645 -1.7617,-1.4785 2.8925,-3.4473 1.7617,1.4785 7.3887,-8.8066 -15.4355,-12.9531 z"
         style="display:inline;opacity:1;fill:none;fill-opacity:1;stroke:#000000;stroke-width:0.49999959;stroke-linecap:round;stroke-linejoin:round;stroke-miterlimit:4;stroke-dasharray:none;stroke-dashoffset:0;stroke-opacity:1" />
    </g>
    <path
       style="display:inline;opacity:1;fill:none;fill-opacity:1;stroke:#000000;stroke-width:1.77165354;stroke-linecap:round;stroke-linejoin:round;stroke-miterlimit:4;stroke-dasharray:none;stroke-dashoffset:0;stroke-opacity:1"
       d="m 406.17884,-389.67523 24.42899,20.4984 138.43075,116.15715 c 13.53367,11.35631 33.57144,9.60308 44.9274,-3.9306 l 58.07875,-69.21537 -88.04098,-73.87518 c -4.51134,-3.78532 -5.09564,-10.46445 -1.31032,-14.9758 l 20.4984,-24.42899 c 3.78532,-4.51135 10.46446,-5.09564 14.9758,-1.31032 l 88.04098,73.87518 103.63084,-123.50207 c 11.35595,-13.53367 9.60272,-33.57109 -3.93095,-44.9274 L 667.47775,-651.46737 c -13.53367,-11.35631 -33.57144,-9.60308 -44.9274,3.93059 l -13.55457,16.1536 95.00181,79.71561 -0.11339,0.13111 -20.4984,24.42899 -0.11693,0.13819 -95.00146,-79.71561 -65.13418,77.62364 31.20947,26.18754 5.23595,-6.23977 12.2145,10.24903 -5.23595,6.24012 10.85741,9.11021 -10.70718,12.76052 -10.85741,-9.11056 -5.2402,6.24544 -12.2145,-10.24938 5.24021,-6.24508 -31.20948,-26.1879 -65.14269,77.63428 95.00146,79.71597 -0.10985,0.13464 -20.4984,24.429 -0.11693,0.13819 -95.00145,-79.71597 -20.38254,24.29116 z"
       id="path11499"
       inkscape:connector-curvature="0" />
    <path
       style="display:inline;opacity:1;fill:none;fill-opacity:1;stroke:#000000;stroke-width:1.77165354;stroke-linecap:round;stroke-linejoin:round;stroke-miterlimit:4;stroke-dasharray:none;stroke-dashoffset:0;stroke-opacity:1"
       d="m 660.15338,-690.84489 162.85974,136.6559 c 13.53367,11.35596 33.57144,9.60308 44.9274,-3.93059 L 1063.814,-791.55213 c 11.3559,-13.53368 9.6027,-33.57145 -3.931,-44.9274 l -138.43071,-116.1575 c -13.53367,-11.35595 -33.57144,-9.60308 -44.9274,3.93059 l -13.55457,16.1536 95.00181,79.71597 -0.11693,0.13819 -20.49841,24.429 -0.11338,0.1311 -95.00146,-79.71597 -65.13844,77.62896 31.20948,26.18754 5.23559,-6.23941 12.2145,10.24902 -5.23559,6.23977 10.85741,9.1102 -10.70753,12.76088 -10.85741,-9.11056 -5.2402,6.24509 -12.2145,-10.24938 5.2402,-6.24473 -31.20948,-26.1879 -65.13808,77.62896 95.00146,79.71562 -0.11693,0.13819 -20.49841,24.429 -0.11338,0.1311 -95.00146,-79.71562 -20.38254,24.29081 z"
       id="path11501"
       inkscape:connector-curvature="0" />
    <path
       inkscape:connector-curvature="0"
       id="path15773"
       d="m 1824.3479,-1119.613 31.8898,0 180.7088,0 c 17.667,0 31.8898,-14.2229 31.8898,-31.8898 l 0,-90.3544 -114.9294,0 c -5.889,0 -10.6299,-4.741 -10.6299,-10.63 l 0,-31.8897 c 0,-5.889 4.7409,-10.63 10.6299,-10.63 l 114.9294,0 0,-161.2206 c 0,-17.6669 -14.2228,-31.8898 -31.8898,-31.8898 l -180.7088,0 c -17.6669,0 -31.8898,14.2229 -31.8898,31.8898 l 0,21.087 124.0159,0 0,0.1736 0,31.8898 0,0.1807 -124.0159,0 0,101.3305 40.741,0 0,-8.1457 15.9449,0 0,8.1457 14.1732,0 0,16.6575 -14.1732,0 0,8.1524 -15.9449,0 0,-8.1524 -40.741,0 0,101.3443 124.0159,0 0,0.1736 0,31.8898 0,0.1807 -124.0159,0 0,31.7098 z"
       style="display:inline;opacity:1;fill:none;fill-opacity:1;stroke:#000000;stroke-width:1.77165354;stroke-linecap:round;stroke-linejoin:round;stroke-miterlimit:4;stroke-dasharray:none;stroke-dashoffset:0;stroke-opacity:1" />
    <path
       inkscape:connector-curvature="0"
       id="path15775"
       d="m 1538.8652,-1119.613 212.5986,0 c 17.6669,0 31.8898,-14.2229 31.8898,-31.8898 l 0,-304.7247 c 0,-17.6669 -14.2229,-31.8898 -31.8898,-31.8898 l -180.7088,0 c -17.667,0 -31.8898,14.2229 -31.8898,31.8898 l 0,21.087 124.0159,0 0,0.1807 0,31.8898 0,0.1736 -124.0159,0 0,101.3372 40.741,0 0,-8.1453 15.9449,0 0,8.1453 14.1732,0 0,16.6578 -14.1732,0 0,8.1521 -15.9449,0 0,-8.1521 -40.741,0 0,101.3373 124.0159,0 0,0.1807 0,31.8898 0,0.1736 -124.0159,0 0,31.7098 z"
       style="display:inline;opacity:1;fill:none;fill-opacity:1;stroke:#000000;stroke-width:1.77165354;stroke-linecap:round;stroke-linejoin:round;stroke-miterlimit:4;stroke-dasharray:none;stroke-dashoffset:0;stroke-opacity:1" />
    <g
       transform="matrix(0,3.54331,-3.54331,0,8251.7624,951.87296)"
       id="g19878"
       style="display:inline;fill:none;stroke:#000000;stroke-width:0.49999959;stroke-miterlimit:4;stroke-dasharray:none">
      <path
         inkscape:connector-curvature="0"
         id="path19880"
         d="m -930.85547,2057.5156 c -0.554,0 -1,0.446 -1,1 l 0,7 0,1.0274 0,1.7597 c 8e-5,3.9777 1.5801,7.7926 4.39258,10.6055 l 5.70703,5.707 0,10.9004 c 0,5.54 4.46,10 10,10 l 17.11328,0 4.28711,0 0,-10.6504 -9.5,0 0,2.3008 -4.5,0 0,-2.3008 -4,0 0,-4.6992 4,0 0,-2.3008 4.5,0 0,2.3008 9.5,0 0,-7.8242 7,0 c 0.554,0 1,-0.446 1,-1 l 0,-7 c 0,-0.554 -0.446,-1 -1,-1 l -7,0 0,-3.6035 0,-4.2207 0,-7.002 c 0,-0.554 -0.446,-1 -1,-1 l -7,0 c -0.554,0 -1,0.446 -1,1 l 0,7.002 -23.5,0 0,-7 c 0,-0.554 -0.446,-1 -1,-1 l -7,0 0,0 z"
         style="display:inline;opacity:1;fill:none;fill-opacity:1;stroke:#000000;stroke-width:0.49999959;stroke-linecap:round;stroke-linejoin:round;stroke-miterlimit:4;stroke-dasharray:none;stroke-dashoffset:0;stroke-opacity:1" />
    </g>
    <g
       transform="matrix(0,-3.54331,3.54331,0,-6779.1262,-5404.2126)"
       id="g19890"
       style="display:inline;fill:none;stroke:#000000;stroke-width:0.49999959;stroke-miterlimit:4;stroke-dasharray:none">
      <path
         inkscape:connector-curvature="0"
         id="path19892"
         d="m -930.85547,2057.5156 c -0.554,0 -1,0.446 -1,1 l 0,7 0,1.0274 0,1.7597 c 8e-5,3.9777 1.5801,7.7926 4.39258,10.6055 l 5.70703,5.707 0,10.9004 c 0,5.54 4.46,10 10,10 l 17.11328,0 4.28711,0 0,-10.6504 -9.5,0 0,2.3008 -4.5,0 0,-2.3008 -4,0 0,-4.6992 4,0 0,-2.3008 4.5,0 0,2.3008 9.5,0 0,-7.8242 7,0 c 0.554,0 1,-0.446 1,-1 l 0,-7 c 0,-0.554 -0.446,-1 -1,-1 l -7,0 0,-3.6035 0,-4.2207 0,-7.002 c 0,-0.554 -0.446,-1 -1,-1 l -7,0 c -0.554,0 -1,0.446 -1,1 l 0,7.002 -23.5,0 0,-7 c 0,-0.554 -0.446,-1 -1,-1 l -7,0 0,0 z"
         style="display:inline;opacity:1;fill:none;fill-opacity:1;stroke:#000000;stroke-width:0.49999959;stroke-linecap:round;stroke-linejoin:round;stroke-miterlimit:4;stroke-dasharray:none;stroke-dashoffset:0;stroke-opacity:1" />
    </g>
    <g
       style="display:inline;fill:none;stroke:#000000;stroke-width:0.49999959;stroke-miterlimit:4;stroke-dasharray:none"
       id="g19936"
       transform="matrix(0,3.54331,-3.54331,0,8276.4057,1645.3533)">
      <path
         style="display:inline;opacity:1;fill:none;fill-opacity:1;stroke:#000000;stroke-width:0.49999959;stroke-linecap:round;stroke-linejoin:round;stroke-miterlimit:4;stroke-dasharray:none;stroke-dashoffset:0;stroke-opacity:1"
         d="m -930.85547,2057.5156 c -0.554,0 -1,0.446 -1,1 l 0,7 0,1.0274 0,1.7597 c 8e-5,3.9777 1.5801,7.7926 4.39258,10.6055 l 5.70703,5.707 0,10.9004 c 0,5.54 4.46,10 10,10 l 17.11328,0 4.28711,0 0,-10.6504 -9.5,0 0,2.3008 -4.5,0 0,-2.3008 -4,0 0,-4.6992 4,0 0,-2.3008 4.5,0 0,2.3008 9.5,0 0,-7.8242 7,0 c 0.554,0 1,-0.446 1,-1 l 0,-7 c 0,-0.554 -0.446,-1 -1,-1 l -7,0 0,-3.6035 0,-4.2207 0,-7.002 c 0,-0.554 -0.446,-1 -1,-1 l -7,0 c -0.554,0 -1,0.446 -1,1 l 0,7.002 -23.5,0 0,-7 c 0,-0.554 -0.446,-1 -1,-1 l -7,0 0,0 z"
         id="path19938"
         inkscape:connector-curvature="0" />
    </g>
    <g
       transform="matrix(0,-3.54331,3.54331,0,-6815.9586,-5159.0684)"
       id="g19944"
       style="display:inline;fill:none;stroke:#000000;stroke-width:0.49999959;stroke-miterlimit:4;stroke-dasharray:none">
      <path
         inkscape:connector-curvature="0"
         id="path19946"
         d="m -930.85547,2057.5156 c -0.554,0 -1,0.446 -1,1 l 0,7 0,1.0274 0,1.7597 c 8e-5,3.9777 1.5801,7.7926 4.39258,10.6055 l 5.70703,5.707 0,10.9004 c 0,5.54 4.46,10 10,10 l 17.11328,0 4.28711,0 0,-10.6504 -9.5,0 0,2.3008 -4.5,0 0,-2.3008 -4,0 0,-4.6992 4,0 0,-2.3008 4.5,0 0,2.3008 9.5,0 0,-7.8242 7,0 c 0.554,0 1,-0.446 1,-1 l 0,-7 c 0,-0.554 -0.446,-1 -1,-1 l -7,0 0,-3.6035 0,-4.2207 0,-7.002 c 0,-0.554 -0.446,-1 -1,-1 l -7,0 c -0.554,0 -1,0.446 -1,1 l 0,7.002 -23.5,0 0,-7 c 0,-0.554 -0.446,-1 -1,-1 l -7,0 0,0 z"
         style="display:inline;opacity:1;fill:none;fill-opacity:1;stroke:#000000;stroke-width:0.49999959;stroke-linecap:round;stroke-linejoin:round;stroke-miterlimit:4;stroke-dasharray:none;stroke-dashoffset:0;stroke-opacity:1" />
    </g>
    <g
       style="display:inline;fill:none;stroke:#000000;stroke-width:0.49999959;stroke-miterlimit:4;stroke-dasharray:none"
       id="g19948"
       transform="matrix(0,-3.54331,3.54331,0,-6629.0334,-4976.8143)">
      <path
         style="display:inline;opacity:1;fill:none;fill-opacity:1;stroke:#000000;stroke-width:0.49999959;stroke-linecap:round;stroke-linejoin:round;stroke-miterlimit:4;stroke-dasharray:none;stroke-dashoffset:0;stroke-opacity:1"
         d="m -930.85547,2057.5156 c -0.554,0 -1,0.446 -1,1 l 0,7 0,1.0274 0,1.7597 c 8e-5,3.9777 1.5801,7.7926 4.39258,10.6055 l 5.70703,5.707 0,10.9004 c 0,5.54 4.46,10 10,10 l 17.11328,0 4.28711,0 0,-10.6504 -9.5,0 0,2.3008 -4.5,0 0,-2.3008 -4,0 0,-4.6992 4,0 0,-2.3008 4.5,0 0,2.3008 9.5,0 0,-7.8242 7,0 c 0.554,0 1,-0.446 1,-1 l 0,-7 c 0,-0.554 -0.446,-1 -1,-1 l -7,0 0,-3.6035 0,-4.2207 0,-7.002 c 0,-0.554 -0.446,-1 -1,-1 l -7,0 c -0.554,0 -1,0.446 -1,1 l 0,7.002 -23.5,0 0,-7 c 0,-0.554 -0.446,-1 -1,-1 l -7,0 0,0 z"
         id="path19950"
         inkscape:connector-curvature="0" />
    </g>
    <g
       style="display:inline;fill:none;stroke:#000000;stroke-width:0.49999959;stroke-miterlimit:4;stroke-dasharray:none"
       id="g19952"
       transform="matrix(-3.54331,0,0,3.54331,12953.854,5433.82)">
      <path
         inkscape:connector-curvature="0"
         style="display:inline;opacity:1;fill:none;fill-opacity:1;stroke:#000000;stroke-width:0.49999959;stroke-linecap:round;stroke-linejoin:round;stroke-miterlimit:4;stroke-dasharray:none;stroke-dashoffset:0;stroke-opacity:1"
         d="m 3517.6212,-2031.6117 -41,34.4023 0,74.3047 0,19.7617 a 50,50 0 0 1 -17.8593,38.3008 l -16.8614,14.1485 -25.6621,21.5332 8.5684,10.2129 103.9199,123.8457 6.8945,-5.7852 0,-130.7246 -9,0 0,-11 -25,0 0,-9 25,0 0,-72.6504 -9.5,0 0,2.3008 -4.5,0 0,-2.3008 -4,0 0,-4.6992 4,0 0,-2.3008 4.5,0 0,2.3008 9.5,0 0,-38.6504 -25,0 0,-9 25,0 0,-40.002 9,0 0,-14.998 -18,0 z"
         id="path19954" />
      <path
         inkscape:connector-curvature="0"
         id="path19956"
         style="display:inline;opacity:1;fill:none;fill-opacity:1;stroke:#000000;stroke-width:0.49999959;stroke-linecap:round;stroke-linejoin:round;stroke-miterlimit:4;stroke-dasharray:none;stroke-dashoffset:0;stroke-opacity:1"
         d="m 3458.9009,-1834.7267 7.939,0 0,7.939 -7.939,0 z" />
    </g>
    <g
       style="display:inline;fill:none;stroke:#000000;stroke-width:0.49999959;stroke-miterlimit:4;stroke-dasharray:none"
       transform="matrix(0,3.54331,3.54331,0,7995.0538,-12496.417)"
       id="g19960">
      <path
         id="path19962"
         d="m 3517.6212,-2031.6117 -41,34.4023 0,74.3047 0,19.7617 a 50,50 0 0 1 -17.8593,38.3008 l -16.8614,14.1485 -25.6621,21.5332 8.5684,10.2129 103.9199,123.8457 6.8945,-5.7852 0,-130.7246 -9,0 0,-11 -25,0 0,-9 25,0 0,-72.6504 -9.5,0 0,2.3008 -4.5,0 0,-2.3008 -4,0 0,-4.6992 4,0 0,-2.3008 4.5,0 0,2.3008 9.5,0 0,-38.6504 -25,0 0,-9 25,0 0,-40.002 9,0 0,-14.998 -18,0 z"
         style="display:inline;opacity:1;fill:none;fill-opacity:1;stroke:#000000;stroke-width:0.49999959;stroke-linecap:round;stroke-linejoin:round;stroke-miterlimit:4;stroke-dasharray:none;stroke-dashoffset:0;stroke-opacity:1"
         inkscape:connector-curvature="0" />
      <path
         d="m 3458.9009,-1834.7267 7.939,0 0,7.939 -7.939,0 z"
         style="display:inline;opacity:1;fill:none;fill-opacity:1;stroke:#000000;stroke-width:0.49999959;stroke-linecap:round;stroke-linejoin:round;stroke-miterlimit:4;stroke-dasharray:none;stroke-dashoffset:0;stroke-opacity:1"
         id="path19964"
         inkscape:connector-curvature="0" />
    </g>
    <g
       transform="matrix(0,3.54331,-3.54331,0,-4862.9208,-17636.382)"
       style="display:inline;fill:none;stroke:#000000;stroke-width:0.49999959;stroke-miterlimit:4;stroke-dasharray:none"
       id="g14487">
      <path
         d="m 4073.4618,-1953.9217 a 2.5,2.5 0 0 1 -2.5,2.5 2.5,2.5 0 0 1 -2.5,-2.5 2.5,2.5 0 0 1 2.5,-2.5 2.5,2.5 0 0 1 2.5,2.5 z"
         style="display:inline;opacity:1;fill:none;fill-opacity:1;stroke:#000000;stroke-width:0.49999959;stroke-linecap:round;stroke-linejoin:round;stroke-miterlimit:4;stroke-dasharray:none;stroke-dashoffset:0;stroke-opacity:1"
         id="circle14156"
         inkscape:connector-curvature="0" />
      <path
         d="m 4073.4618,-2036.8828 a 2.5,2.5 0 0 1 -2.5,2.5 2.5,2.5 0 0 1 -2.5,-2.5 2.5,2.5 0 0 1 2.5,-2.5 2.5,2.5 0 0 1 2.5,2.5 z"
         style="display:inline;opacity:1;fill:none;fill-opacity:1;stroke:#000000;stroke-width:0.49999959;stroke-linecap:round;stroke-linejoin:round;stroke-miterlimit:4;stroke-dasharray:none;stroke-dashoffset:0;stroke-opacity:1"
         id="circle14158"
         inkscape:connector-curvature="0" />
      <path
         style="display:inline;opacity:1;fill:none;fill-opacity:1;stroke:#000000;stroke-width:0.49999959;stroke-linecap:round;stroke-linejoin:round;stroke-miterlimit:4;stroke-dasharray:none;stroke-dashoffset:0;stroke-opacity:1"
         d="m 4095.829,-2246.2204 c -29.1893,0.036 -53.2407,22.9189 -54.7285,52.0703 -0.089,0.9167 -0.1348,1.8369 -0.1387,2.7578 l 0,0.039 0,237.4316 c 0,16.5685 13.4315,30 30,30 16.5686,0 30,-13.4315 30,-30 l 0,-237.3993 -0.041,-1.7628 c 2e-4,-7.2551 5.8816,-13.1365 13.1367,-13.1367 l 0,0.041 0.041,-0.041 19.2911,0 c 8.2835,0 14.998,-6.7165 14.998,-15 l 0,-10 c 0,-8.2835 -6.7145,-14.9989 -14.998,-15 l -37.5586,0 z"
         id="path14160"
         inkscape:connector-curvature="0"
         sodipodi:nodetypes="ccccsssccccccssccc" />
      <path
         d="m 4073.4618,-2119.8441 a 2.5,2.5 0 0 1 -2.5,2.5 2.5,2.5 0 0 1 -2.5,-2.5 2.5,2.5 0 0 1 2.5,-2.5 2.5,2.5 0 0 1 2.5,2.5 z m 0,0 a 2.5,2.5 0 0 1 -2.5,2.5 2.5,2.5 0 0 1 -2.5,-2.5 2.5,2.5 0 0 1 2.5,-2.5 2.5,2.5 0 0 1 2.5,2.5 z"
         style="display:inline;opacity:1;fill:none;fill-opacity:1;stroke:#000000;stroke-width:0.49999959;stroke-linecap:round;stroke-linejoin:round;stroke-miterlimit:4;stroke-dasharray:none;stroke-dashoffset:0;stroke-opacity:1"
         id="circle14162"
         inkscape:connector-curvature="0" />
      <path
         d="m 4133.966,-2217.5932 a 2.5,2.5 0 0 1 -2.5,2.5 2.5,2.5 0 0 1 -2.5,-2.5 2.5,2.5 0 0 1 2.5,-2.5 2.5,2.5 0 0 1 2.5,2.5 z"
         style="display:inline;opacity:1;fill:none;fill-opacity:1;stroke:#000000;stroke-width:0.49999959;stroke-linecap:round;stroke-linejoin:round;stroke-miterlimit:4;stroke-dasharray:none;stroke-dashoffset:0;stroke-opacity:1"
         id="circle14168"
         inkscape:connector-curvature="0" />
    </g>
    <g
       id="g20030"
       style="display:inline;fill:none;stroke:#000000;stroke-width:0.49999959;stroke-miterlimit:4;stroke-dasharray:none"
       transform="matrix(0,3.54331,3.54331,0,8051.8974,-17636.382)">
      <path
         inkscape:connector-curvature="0"
         id="path20032"
         style="display:inline;opacity:1;fill:none;fill-opacity:1;stroke:#000000;stroke-width:0.49999959;stroke-linecap:round;stroke-linejoin:round;stroke-miterlimit:4;stroke-dasharray:none;stroke-dashoffset:0;stroke-opacity:1"
         d="m 4073.4618,-1953.9217 a 2.5,2.5 0 0 1 -2.5,2.5 2.5,2.5 0 0 1 -2.5,-2.5 2.5,2.5 0 0 1 2.5,-2.5 2.5,2.5 0 0 1 2.5,2.5 z" />
      <path
         inkscape:connector-curvature="0"
         id="path20034"
         style="display:inline;opacity:1;fill:none;fill-opacity:1;stroke:#000000;stroke-width:0.49999959;stroke-linecap:round;stroke-linejoin:round;stroke-miterlimit:4;stroke-dasharray:none;stroke-dashoffset:0;stroke-opacity:1"
         d="m 4073.4618,-2036.8828 a 2.5,2.5 0 0 1 -2.5,2.5 2.5,2.5 0 0 1 -2.5,-2.5 2.5,2.5 0 0 1 2.5,-2.5 2.5,2.5 0 0 1 2.5,2.5 z" />
      <path
         sodipodi:nodetypes="ccccsssccccccssccc"
         inkscape:connector-curvature="0"
         id="path20036"
         d="m 4095.829,-2246.2204 c -29.1893,0.036 -53.2407,22.9189 -54.7285,52.0703 -0.089,0.9167 -0.1348,1.8369 -0.1387,2.7578 l 0,0.039 0,237.4316 c 0,16.5685 13.4315,30 30,30 16.5686,0 30,-13.4315 30,-30 l 0,-237.3993 -0.041,-1.7628 c 2e-4,-7.2551 5.8816,-13.1365 13.1367,-13.1367 l 0,0.041 0.041,-0.041 19.2911,0 c 8.2835,0 14.998,-6.7165 14.998,-15 l 0,-10 c 0,-8.2835 -6.7145,-14.9989 -14.998,-15 l -37.5586,0 z"
         style="display:inline;opacity:1;fill:none;fill-opacity:1;stroke:#000000;stroke-width:0.49999959;stroke-linecap:round;stroke-linejoin:round;stroke-miterlimit:4;stroke-dasharray:none;stroke-dashoffset:0;stroke-opacity:1" />
      <path
         inkscape:connector-curvature="0"
         id="path20038"
         style="display:inline;opacity:1;fill:none;fill-opacity:1;stroke:#000000;stroke-width:0.49999959;stroke-linecap:round;stroke-linejoin:round;stroke-miterlimit:4;stroke-dasharray:none;stroke-dashoffset:0;stroke-opacity:1"
         d="m 4073.4618,-2119.8441 a 2.5,2.5 0 0 1 -2.5,2.5 2.5,2.5 0 0 1 -2.5,-2.5 2.5,2.5 0 0 1 2.5,-2.5 2.5,2.5 0 0 1 2.5,2.5 z m 0,0 a 2.5,2.5 0 0 1 -2.5,2.5 2.5,2.5 0 0 1 -2.5,-2.5 2.5,2.5 0 0 1 2.5,-2.5 2.5,2.5 0 0 1 2.5,2.5 z" />
      <path
         inkscape:connector-curvature="0"
         id="path20040"
         style="display:inline;opacity:1;fill:none;fill-opacity:1;stroke:#000000;stroke-width:0.49999959;stroke-linecap:round;stroke-linejoin:round;stroke-miterlimit:4;stroke-dasharray:none;stroke-dashoffset:0;stroke-opacity:1"
         d="m 4133.966,-2217.5932 a 2.5,2.5 0 0 1 -2.5,2.5 2.5,2.5 0 0 1 -2.5,-2.5 2.5,2.5 0 0 1 2.5,-2.5 2.5,2.5 0 0 1 2.5,2.5 z" />
    </g>
    <path
       inkscape:connector-curvature="0"
       style="display:inline;opacity:1;fill:none;fill-opacity:1;stroke:#000000;stroke-width:1.77165354;stroke-linecap:round;stroke-linejoin:round;stroke-miterlimit:4;stroke-dasharray:none;stroke-dashoffset:0;stroke-opacity:1"
       d="m 2724.6275,-1273.7428 -88.5827,0 0,-32.2498 88.5756,0 c -0.099,-29.3602 -23.7589,-52.9696 -53.1425,-52.9696 l -124.0159,0 0,138.1891 -28.3465,0 c -1.9637,0 -3.5433,1.5803 -3.5433,3.5433 l 0,46.063 c 0,1.963 1.5796,3.5433 3.5433,3.5433 l 28.3465,0 0,295.86642 14.1733,0 0,88.58275 -14.1733,0 0,295.86638 -28.3465,0 c -1.9633,0 -3.5433,1.58032 -3.5433,3.54331 l 0,46.06303 c 0,1.963 1.58,3.54331 3.5433,3.54331 l 28.3465,0 0,138.18909 124.0159,0 c 29.3829,0 53.0451,-23.60907 53.1425,-52.96965 l -88.5756,0 0,-32.24979 88.5827,0 0,-276.01818 -88.5827,0 0,-32.24979 88.5827,0 0,-276.01818 -88.5827,0 0,-32.24979 88.5827,0 0,-276.01821 z"
       id="path20102" />
    <path
       inkscape:connector-curvature="0"
       style="display:inline;opacity:1;fill:none;fill-opacity:1;stroke:#000000;stroke-width:1.77165354;stroke-linecap:round;stroke-linejoin:round;stroke-miterlimit:4;stroke-dasharray:none;stroke-dashoffset:0;stroke-opacity:1"
       d="m 1830.9913,-526.38251 -67.8583,56.93993 -20.7298,-24.70466 67.853,-56.93533 c -18.9486,-22.42738 -52.2486,-25.30525 -74.7578,-6.41764 l -95.0019,79.71597 88.8266,105.85887 -21.7148,18.22076 c -1.5042,1.26213 -1.6987,3.48804 -0.4366,4.99182 l 29.6086,35.2864 c 1.2618,1.50378 3.4877,1.69902 4.9918,0.43654 l 21.7149,-18.22041 190.179,226.64676 10.8574,-9.11056 56.9399,67.858288 -10.8574,9.110558 190.1794,226.646764 -21.7148,18.22076 c -1.5038,1.26177 -1.6984,3.48803 -0.4366,4.99182 l 29.6086,35.2864 c 1.2618,1.50378 3.4881,1.69867 4.9922,0.43689 l 21.7145,-18.22111 88.8261,105.85922 95.0018,-79.71597 c 22.5086,-18.88691 25.4594,-52.18233 6.6615,-74.73656 l -67.853,56.93532 -20.7298,-24.70467 67.8583,-56.93992 -177.421,-211.442068 -67.8583,56.9399286 -20.7297,-24.7050206 67.8582,-56.939574 -177.4213,-211.442416 -67.8583,56.93993 -20.7297,-24.70467 67.8586,-56.93993 -177.4213,-211.44206 z"
       id="path20104" />
    <path
       id="path20106"
       d="m 787.25049,81.084332 0,88.582748 -32.24979,0 0,-88.575661 c -29.36022,0.09921 -52.96965,23.758961 -52.96965,53.142561 l 0,124.01585 138.18909,0 0,28.34648 c 0,1.9637 1.58032,3.54331 3.54331,3.54331 l 46.06303,0 c 1.96299,0 3.54331,-1.57961 3.54331,-3.54331 l 0,-28.34648 295.86641,0 0,-14.17324 88.5827,0 0,14.17324 295.8664,0 0,28.34648 c 0,1.96335 1.5803,3.54331 3.5433,3.54331 l 46.063,0 c 1.963,0 3.5434,-1.57996 3.5434,-3.54331 l 0,-28.34648 138.189,0 0,-124.01585 c 0,-29.3829 -23.609,-53.04512 -52.9696,-53.142561 l 0,88.575661 -32.2498,0 0,-88.582748 -276.0182,0 0,88.582748 -32.2498,0 0,-88.582748 -276.0181,0 0,88.582748 -32.2498,0 0,-88.582748 -276.01821,0 z"
       style="display:inline;opacity:1;fill:none;fill-opacity:1;stroke:#000000;stroke-width:1.77165354;stroke-linecap:round;stroke-linejoin:round;stroke-miterlimit:4;stroke-dasharray:none;stroke-dashoffset:0;stroke-opacity:1"
       inkscape:connector-curvature="0" />
  </g>
</svg>
