<?xml version="1.0" encoding="UTF-8" standalone="no"?>
<!-- Created with Inkscape (http://www.inkscape.org/) -->

<svg
   xmlns:dc="http://purl.org/dc/elements/1.1/"
   xmlns:cc="http://creativecommons.org/ns#"
   xmlns:rdf="http://www.w3.org/1999/02/22-rdf-syntax-ns#"
   xmlns:svg="http://www.w3.org/2000/svg"
   xmlns="http://www.w3.org/2000/svg"
   xmlns:sodipodi="http://sodipodi.sourceforge.net/DTD/sodipodi-0.dtd"
   xmlns:inkscape="http://www.inkscape.org/namespaces/inkscape"
   width="900mm"
   height="1250mm"
   viewBox="0 0 3188.9764 4429.1338"
   id="svg20647"
   version="1.1"
   inkscape:version="0.91 r13725"
   sodipodi:docname="laser_A-mdf_9mm-1250x900-juan_pablo.svg">
  <defs
     id="defs20649" />
  <sodipodi:namedview
     id="base"
     pagecolor="#ffffff"
     bordercolor="#666666"
     borderopacity="1.0"
     inkscape:pageopacity="0.0"
     inkscape:pageshadow="2"
     inkscape:zoom="0.042807628"
     inkscape:cx="1096.0669"
     inkscape:cy="3575.1291"
     inkscape:document-units="mm"
     inkscape:current-layer="layer1"
     showgrid="false"
     inkscape:window-width="1366"
     inkscape:window-height="715"
     inkscape:window-x="0"
     inkscape:window-y="0"
     inkscape:window-maximized="1" />
  <metadata
     id="metadata20652">
    <rdf:RDF>
      <cc:Work
         rdf:about="">
        <dc:format>image/svg+xml</dc:format>
        <dc:type
           rdf:resource="http://purl.org/dc/dcmitype/StillImage" />
        <dc:title></dc:title>
        <cc:license
           rdf:resource="http://creativecommons.org/licenses/by-sa/3.0/" />
      </cc:Work>
      <cc:License
         rdf:about="http://creativecommons.org/licenses/by-sa/3.0/">
        <cc:permits
           rdf:resource="http://creativecommons.org/ns#Reproduction" />
        <cc:permits
           rdf:resource="http://creativecommons.org/ns#Distribution" />
        <cc:requires
           rdf:resource="http://creativecommons.org/ns#Notice" />
        <cc:requires
           rdf:resource="http://creativecommons.org/ns#Attribution" />
        <cc:permits
           rdf:resource="http://creativecommons.org/ns#DerivativeWorks" />
        <cc:requires
           rdf:resource="http://creativecommons.org/ns#ShareAlike" />
      </cc:License>
    </rdf:RDF>
  </metadata>
  <g
     inkscape:label="Capa 1"
     inkscape:groupmode="layer"
     id="layer1"
     transform="translate(0,3376.7717)">
    <g
       style="display:inline;fill:none;stroke:#000000;stroke-width:0.49999958;stroke-linecap:round;stroke-linejoin:round;stroke-miterlimit:4;stroke-dasharray:none"
       id="g14543"
       transform="matrix(0,3.54331,-3.54331,0,-2662.4274,-17200.485)">
      <path
         style="display:inline;opacity:1;fill:none;fill-opacity:1;stroke:#000000;stroke-width:0.49999958;stroke-linecap:round;stroke-linejoin:round;stroke-miterlimit:4;stroke-dasharray:none;stroke-dashoffset:0;stroke-opacity:1"
         d="m 4146.3173,-1332.5925 a 17.5,17.5 0 0 0 17.5,-17.5 l 0,-53.5 9,0 0,25 a 12,12 0 0 0 12,-12 l 0,-24.5 a 17.5,17.5 0 0 0 -17.5,-17.5 l -21,0 a 17.5,17.5 0 0 0 -17.5,17.5 l 0,65 a 17.5,17.5 0 0 0 17.5,17.5 z"
         id="path14010"
         inkscape:connector-curvature="0" />
      <path
         d="m -4142.0664,1357.593 a 4.25,4.25 0 0 1 -4.25,4.25 4.25,4.25 0 0 1 -4.25,-4.25 4.25,4.25 0 0 1 4.25,-4.25 4.25,4.25 0 0 1 4.25,4.25 z"
         style="opacity:1;fill:none;fill-opacity:1;stroke:#000000;stroke-width:0.49999958;stroke-linecap:round;stroke-linejoin:round;stroke-miterlimit:4;stroke-dasharray:none;stroke-dashoffset:0;stroke-opacity:1"
         transform="scale(-1,-1)"
         id="circle14014"
         inkscape:connector-curvature="0" />
      <path
         d="m -4142.0664,1407.593 a 4.25,4.25 0 0 1 -4.25,4.25 4.25,4.25 0 0 1 -4.25,-4.25 4.25,4.25 0 0 1 4.25,-4.25 4.25,4.25 0 0 1 4.25,4.25 z"
         style="opacity:1;fill:none;fill-opacity:1;stroke:#000000;stroke-width:0.49999958;stroke-linecap:round;stroke-linejoin:round;stroke-miterlimit:4;stroke-dasharray:none;stroke-dashoffset:0;stroke-opacity:1"
         transform="scale(-1,-1)"
         id="circle14016"
         inkscape:connector-curvature="0" />
    </g>
    <g
       style="display:inline;fill:none;stroke:#000000;stroke-width:0.49999958;stroke-linecap:round;stroke-linejoin:round;stroke-miterlimit:4;stroke-dasharray:none"
       id="g14533"
       transform="matrix(0,3.54331,-3.54331,0,-3890.4672,-17427.415)">
      <path
         style="display:inline;opacity:1;fill:none;fill-opacity:1;stroke:#000000;stroke-width:0.49999958;stroke-linecap:round;stroke-linejoin:round;stroke-miterlimit:4;stroke-dasharray:none;stroke-dashoffset:0;stroke-opacity:1"
         d="m 4210.6029,-1443.675 a 17.5,17.5 0 0 0 17.5,-17.5 l 0,-53.5 9,0 0,25 a 12,12 0 0 0 12,-12 l 0,-24.5 a 17.5,17.5 0 0 0 -17.5,-17.5 l -32.0039,0 a 17.5,17.5 0 0 0 -17.5,17.5 l 0,65 a 17.5,17.5 0 0 0 17.5,17.5 l 11.0039,0 z"
         id="path14020"
         inkscape:connector-curvature="0" />
      <path
         d="m -4195.3486,1468.675 a 4.25,4.25 0 0 1 -4.25,4.25 4.25,4.25 0 0 1 -4.25,-4.25 4.25,4.25 0 0 1 4.25,-4.25 4.25,4.25 0 0 1 4.25,4.25 z"
         style="opacity:1;fill:none;fill-opacity:1;stroke:#000000;stroke-width:0.49999958;stroke-linecap:round;stroke-linejoin:round;stroke-miterlimit:4;stroke-dasharray:none;stroke-dashoffset:0;stroke-opacity:1"
         transform="scale(-1,-1)"
         id="circle14022"
         inkscape:connector-curvature="0" />
      <path
         d="m -4195.3486,1518.675 a 4.25,4.25 0 0 1 -4.25,4.25 4.25,4.25 0 0 1 -4.25,-4.25 4.25,4.25 0 0 1 4.25,-4.25 4.25,4.25 0 0 1 4.25,4.25 z"
         style="opacity:1;fill:none;fill-opacity:1;stroke:#000000;stroke-width:0.49999958;stroke-linecap:round;stroke-linejoin:round;stroke-miterlimit:4;stroke-dasharray:none;stroke-dashoffset:0;stroke-opacity:1"
         transform="scale(-1,-1)"
         id="circle14024"
         inkscape:connector-curvature="0" />
    </g>
    <path
       inkscape:connector-curvature="0"
       id="path14026"
       d="m 2640.2835,-3123.4411 a 62.007925,62.007925 0 0 1 18.1247,-43.8485 l 0,0 90.3615,-90.3544 a 62.007925,62.007925 0 0 1 43.8208,-18.1871 l 83.3298,0 a 62.007925,62.007925 0 0 1 61.9941,61.6065 l 0,13.5227 -56.6929,0 0,31.8898 56.6929,0 127.5524,0 0,111.6004 0,64.8454 0,141.7324 c -21.466,0 -42.042,-8.5638 -57.212,-23.7515 l -117.988,-117.9741 0,0 -187.9754,0 a 62.007925,62.007925 0 0 1 -62.0079,-62.008 l 0,-8.8582 248.0384,0 0,-31.8898 -248.0384,0 0,-28.3118 z"
       style="display:inline;opacity:1;fill:none;fill-opacity:1;stroke:#000000;stroke-width:1.77165353;stroke-linecap:round;stroke-linejoin:round;stroke-miterlimit:4;stroke-dasharray:none;stroke-dashoffset:0;stroke-opacity:1" />
    <g
       style="display:inline;fill:none;stroke:#000000;stroke-width:0.49999958;stroke-linecap:round;stroke-linejoin:round;stroke-miterlimit:4;stroke-dasharray:none"
       id="g14538"
       transform="matrix(0,3.54331,-3.54331,0,-3487.3361,-17143.487)">
      <path
         inkscape:connector-curvature="0"
         id="path14030"
         d="m 4140.4685,-1546.8007 a 17.5,17.5 0 0 0 -17.5,17.5 l 0,53.5 -9,0 0,-25 a 12,12 0 0 0 -12,12 l 0,24.5 a 17.5,17.5 0 0 0 17.5,17.5 l 32.0039,0 a 17.5,17.5 0 0 0 17.5,-17.5 l 0,-65 a 17.5,17.5 0 0 0 -17.5,-17.5 l -11.0039,0 z"
         style="display:inline;opacity:1;fill:none;fill-opacity:1;stroke:#000000;stroke-width:0.49999958;stroke-linecap:round;stroke-linejoin:round;stroke-miterlimit:4;stroke-dasharray:none;stroke-dashoffset:0;stroke-opacity:1" />
      <path
         d="m 4155.7227,-1521.8007 a 4.25,4.25 0 0 1 -4.25,4.25 4.25,4.25 0 0 1 -4.25,-4.25 4.25,4.25 0 0 1 4.25,-4.25 4.25,4.25 0 0 1 4.25,4.25 z"
         style="opacity:1;fill:none;fill-opacity:1;stroke:#000000;stroke-width:0.49999958;stroke-linecap:round;stroke-linejoin:round;stroke-miterlimit:4;stroke-dasharray:none;stroke-dashoffset:0;stroke-opacity:1"
         id="circle14032"
         inkscape:connector-curvature="0" />
      <path
         d="m 4155.7227,-1471.8007 a 4.25,4.25 0 0 1 -4.25,4.25 4.25,4.25 0 0 1 -4.25,-4.25 4.25,4.25 0 0 1 4.25,-4.25 4.25,4.25 0 0 1 4.25,4.25 z"
         style="opacity:1;fill:none;fill-opacity:1;stroke:#000000;stroke-width:0.49999958;stroke-linecap:round;stroke-linejoin:round;stroke-miterlimit:4;stroke-dasharray:none;stroke-dashoffset:0;stroke-opacity:1"
         id="circle14034"
         inkscape:connector-curvature="0" />
    </g>
    <g
       style="display:inline;fill:none;stroke:#000000;stroke-width:0.49999958;stroke-linecap:round;stroke-linejoin:round;stroke-miterlimit:4;stroke-dasharray:none"
       id="g14528"
       transform="matrix(0,3.54331,-3.54331,0,-3834.4416,-17361.332)">
      <path
         inkscape:connector-curvature="0"
         id="path14038"
         d="m 4207.7793,-1414.4231 a 17.5,17.5 0 0 0 -17.5,17.5 l 0,53.5 -9,0 0,-25 a 12,12 0 0 0 -12,12 l 0,24.5 a 17.5,17.5 0 0 0 17.5,17.5 l 21,0 a 17.5,17.5 0 0 0 17.5,-17.5 l 0,-65 a 17.5,17.5 0 0 0 -17.5,-17.5 z"
         style="display:inline;opacity:1;fill:none;fill-opacity:1;stroke:#000000;stroke-width:0.49999958;stroke-linecap:round;stroke-linejoin:round;stroke-miterlimit:4;stroke-dasharray:none;stroke-dashoffset:0;stroke-opacity:1" />
      <path
         d="m 4212.0303,-1389.4226 a 4.25,4.25 0 0 1 -4.25,4.25 4.25,4.25 0 0 1 -4.25,-4.25 4.25,4.25 0 0 1 4.25,-4.25 4.25,4.25 0 0 1 4.25,4.25 z"
         style="opacity:1;fill:none;fill-opacity:1;stroke:#000000;stroke-width:0.49999958;stroke-linecap:round;stroke-linejoin:round;stroke-miterlimit:4;stroke-dasharray:none;stroke-dashoffset:0;stroke-opacity:1"
         id="circle14042"
         inkscape:connector-curvature="0" />
      <path
         d="m 4212.0303,-1339.4226 a 4.25,4.25 0 0 1 -4.25,4.25 4.25,4.25 0 0 1 -4.25,-4.25 4.25,4.25 0 0 1 4.25,-4.25 4.25,4.25 0 0 1 4.25,4.25 z"
         style="opacity:1;fill:none;fill-opacity:1;stroke:#000000;stroke-width:0.49999958;stroke-linecap:round;stroke-linejoin:round;stroke-miterlimit:4;stroke-dasharray:none;stroke-dashoffset:0;stroke-opacity:1"
         id="circle14044"
         inkscape:connector-curvature="0" />
    </g>
    <path
       style="display:inline;opacity:1;fill:none;fill-opacity:1;stroke:#000000;stroke-width:1.77165353;stroke-linecap:round;stroke-linejoin:round;stroke-miterlimit:4;stroke-dasharray:none;stroke-dashoffset:0;stroke-opacity:1"
       d="m 546.02001,-3132.0421 a 62.007925,62.007925 0 0 0 -18.12474,-43.8484 l 0,0 -90.36149,-90.3544 a 62.007925,62.007925 0 0 0 -43.82083,-18.1871 l -83.32979,0 a 62.007925,62.007925 0 0 0 -61.99411,61.6064 l 0,13.5227 56.69296,0 0,31.8898 -56.69296,0 -127.55242,0 0,111.6005 0,64.8454 0,141.7324 c 21.46608,0 42.04208,-8.5639 57.21205,-23.7516 l 117.98797,-117.9741 0,0 187.97543,0 a 62.007925,62.007925 0 0 0 62.00793,-62.0079 l 0,-8.8583 -248.03844,0 0,-31.8898 248.03844,0 0,-28.3117 z"
       id="path14046"
       inkscape:connector-curvature="0" />
    <g
       style="fill:none;stroke:#000000;stroke-width:0.49999958;stroke-linecap:round;stroke-linejoin:round;stroke-miterlimit:4;stroke-dasharray:none"
       id="g19819"
       transform="matrix(3.54331,0,0,3.54331,-3096.7525,-1438.5582)">
      <g
         style="fill:none;stroke:#000000;stroke-width:0.49999958;stroke-linecap:round;stroke-linejoin:round;stroke-miterlimit:4;stroke-dasharray:none"
         transform="translate(0,700)"
         id="g19401">
        <path
           sodipodi:nodetypes="ccccccccccccccccccccssccccccssccccccccccccccssccccsccccccccccccccsccccccccccccccscccccccccsc"
           inkscape:connector-curvature="0"
           style="display:inline;opacity:1;fill:none;fill-opacity:1;stroke:#000000;stroke-width:0.49999958;stroke-linecap:round;stroke-linejoin:round;stroke-miterlimit:4;stroke-dasharray:none;stroke-dashoffset:0;stroke-opacity:1"
           d="m 1323.9713,-1051.007 21.9531,0 0,-70 0.051,0 9,0 0.051,0 0,70 172.5234,0 c 1.1339,10e-5 2.2593,0.073 3.375,0.1992 l 0,-70.1992 0.051,0 9,0 0.051,0 0,72.7285 c 3.2187,1.4722 6.1855,3.5078 8.7364,6.0586 l 111.4218,111.42189 c 5.6262,5.626 8.787,13.2565 8.7871,21.2129 l 0,685.5781 -45,45 -22.7168,0 0,5.5196 c 0,9.13 -7.3504,16.4804 -16.4804,16.4804 l -18.1348,0 -5.1641,0 -21.5,0 0,-17.498 0,-4.502 0,-22 -17.5,0 c -9.6649,0 -17.5,7.835 -17.5,17.5 l 0,9 -59.6503,0 0,9.5 2.3007,0 0,4.5 -2.3007,0 0,4 -4.6993,0 0,-4 -2.3007,0 0,-4.5 2.3007,0 0,-9.5 -59.6504,0 0,-9 c 0,-9.665 -7.835,-17.5 -17.5,-17.5 l -17.5,0 0,22 0,4.502 0,17.498 -12.0039,0 c -5.5228,0 -9.9999,4.4772 -10,10 m 0,138.9999968 21.9532,0 0,-102.9999968 0.051,0 9,0 0.051,0 0,102.9999968 175.8984,0 0,-102.9999968 0.051,0 9,0 0.051,0 0,102.9999968 141.9492,0 c 0.6962,0 1.3663,0.1055 2,0.293 l 0,-43.2929998 9,0 0,49.9999998 17.75,0 0,-49.9999998 9,0 0,49.9999998 22.2461,0 0,-49.9999998 9,0 0,49.9999998 18,0 0,-179.9999968 0,-752.541 c -10e-5,-21.2173 -8.4287,-41.5637 -23.4316,-56.5684 l -81.9317,-81.93159 -55.5273,-55.5273 -44.1035,-44.1035 c -4.6881,-4.6899 -11.047,-7.3238 -17.6778,-7.3243 l -33.789,0 c -11.421,-28.3847 -38.939,-46.9861 -69.5352,-47.0039 l 0,0 c -30.5912,0.023 -58.1024,18.6239 -69.5215,47.0039 l -24.496,0 c -13.6507,0 -24.9864,10.9587 -24.9864,24.6094"
           id="path19321-8" />
        <path
           inkscape:connector-curvature="0"
           style="display:inline;opacity:1;fill:none;fill-opacity:1;stroke:#000000;stroke-width:0.49999958;stroke-linecap:round;stroke-linejoin:round;stroke-miterlimit:4;stroke-dasharray:none;stroke-dashoffset:0;stroke-opacity:1"
           d="m 1442.9752,-1155.007 c 2.2091,0 4,1.7909 4,4 0,2.2091 -1.7909,4 -4,4 -2.2092,0 -4,-1.7909 -4,-4 0,-2.2091 1.7908,-4 4,-4 z"
           id="path9260-0-3-9" />
        <path
           inkscape:connector-curvature="0"
           id="path6699-3"
           style="display:inline;opacity:1;fill:none;fill-opacity:1;stroke:#000000;stroke-width:0.49999958;stroke-linecap:round;stroke-linejoin:round;stroke-miterlimit:4;stroke-dasharray:none;stroke-dashoffset:0;stroke-opacity:1"
           d="m 1717.7251,-149.75891 a 2.5,2.5 0 0 1 -2.5,2.5 2.5,2.5 0 0 1 -2.5,-2.5 2.5,2.5 0 0 1 2.5,-2.5 2.5,2.5 0 0 1 2.5,2.5 z" />
        <path
           inkscape:connector-curvature="0"
           id="circle6701-6"
           style="display:inline;opacity:1;fill:none;fill-opacity:1;stroke:#000000;stroke-width:0.49999958;stroke-linecap:round;stroke-linejoin:round;stroke-miterlimit:4;stroke-dasharray:none;stroke-dashoffset:0;stroke-opacity:1"
           d="m 1690.9746,-149.75891 a 2.5,2.5 0 0 1 -2.5,2.5 2.5,2.5 0 0 1 -2.5,-2.5 2.5,2.5 0 0 1 2.5,-2.5 2.5,2.5 0 0 1 2.5,2.5 z" />
        <path
           inkscape:connector-curvature="0"
           id="path13164-8"
           style="display:inline;opacity:1;fill:none;fill-opacity:1;stroke:#000000;stroke-width:0.49999958;stroke-linecap:round;stroke-linejoin:round;stroke-miterlimit:4;stroke-dasharray:none;stroke-dashoffset:0;stroke-opacity:1"
           d="m 1721.4713,-974.77131 a 2.5,2.5 0 0 1 -2.5,2.5 2.5,2.5 0 0 1 -2.5,-2.5 2.5,2.5 0 0 1 2.5,-2.5 2.5,2.5 0 0 1 2.5,2.5 z" />
        <path
           inkscape:connector-curvature="0"
           id="circle13201-0"
           style="display:inline;opacity:1;fill:none;fill-opacity:1;stroke:#000000;stroke-width:0.49999958;stroke-linecap:round;stroke-linejoin:round;stroke-miterlimit:4;stroke-dasharray:none;stroke-dashoffset:0;stroke-opacity:1"
           d="m 1721.4713,-808.84881 a 2.5,2.5 0 0 1 -2.5,2.5 2.5,2.5 0 0 1 -2.5,-2.5 2.5,2.5 0 0 1 2.5,-2.5 2.5,2.5 0 0 1 2.5,2.5 z" />
        <path
           inkscape:connector-curvature="0"
           id="circle13211-2"
           style="display:inline;opacity:1;fill:none;fill-opacity:1;stroke:#000000;stroke-width:0.49999958;stroke-linecap:round;stroke-linejoin:round;stroke-miterlimit:4;stroke-dasharray:none;stroke-dashoffset:0;stroke-opacity:1"
           d="m 1721.4713,-891.81001 a 2.5,2.5 0 0 1 -2.5,2.5 2.5,2.5 0 0 1 -2.5,-2.5 2.5,2.5 0 0 1 2.5,-2.5 2.5,2.5 0 0 1 2.5,2.5 z" />
      </g>
      <g
         style="fill:none;stroke:#000000;stroke-width:0.49999958;stroke-linecap:round;stroke-linejoin:round;stroke-miterlimit:4;stroke-dasharray:none"
         transform="matrix(-1,0,0,1,2647.9426,700)"
         id="g19428">
        <path
           id="path19430"
           d="m 1442.9752,-1226.007 c -30.5912,0.023 -58.1024,18.6239 -69.5215,47.0039 l -24.496,0 c -13.6507,0 -24.9864,10.9587 -24.9864,24.6094 l 0,103.3867 21.9531,0 0,-70 0.051,0 9,0 0.051,0 0,70 172.5234,0 c 1.1339,10e-5 2.2593,0.073 3.375,0.1992 l 0,-70.1992 0.051,0 9,0 0.051,0 0,72.7285 c 3.2187,1.4722 6.1855,3.5078 8.7364,6.0586 l 111.4218,111.42189 c 5.6262,5.626 8.787,13.2565 8.7871,21.2129 l 0,685.5781 -45,45 -22.7168,0 0,5.5196 c 0,9.13 -7.3504,16.4804 -16.4804,16.4804 l -18.1348,0 -5.1641,0 -21.5,0 0,-17.498 0,-4.502 0,-22 -17.5,0 c -9.6649,0 -17.5,7.835 -17.5,17.5 l 0,9 -59.6503,0 0,9.5 2.3007,0 0,4.5 -2.3007,0 0,4 -4.6993,0 0,-4 -2.3007,0 0,-4.5 2.3007,0 0,-9.5 -59.6504,0 0,-9 c 0,-9.665 -7.835,-17.5 -17.5,-17.5 l -17.5,0 0,22 0,4.502 0,17.498 -12.0039,0 c -5.5228,0 -9.9999,4.4772 -10,10 l 0,138.9999968 21.9532,0 0,-102.9999968 0.051,0 9,0 0.051,0 0,102.9999968 175.8984,0 0,-102.9999968 0.051,0 9,0 0.051,0 0,102.9999968 141.9492,0 c 0.6962,0 1.3663,0.1055 2,0.293 l 0,-43.2929998 9,0 0,49.9999998 17.75,0 0,-49.9999998 9,0 0,49.9999998 22.2461,0 0,-49.9999998 9,0 0,49.9999998 18,0 0,-179.9999968 0,-752.541 c -10e-5,-21.2173 -8.4287,-41.5637 -23.4316,-56.5684 l -81.9317,-81.93159 -55.5273,-55.5273 -44.1035,-44.1035 c -4.6881,-4.6899 -11.047,-7.3238 -17.6778,-7.3243 l -33.789,0 c -11.421,-28.3847 -38.939,-46.9861 -69.5352,-47.0039 z"
           style="display:inline;opacity:1;fill:none;fill-opacity:1;stroke:#000000;stroke-width:0.49999958;stroke-linecap:round;stroke-linejoin:round;stroke-miterlimit:4;stroke-dasharray:none;stroke-dashoffset:0;stroke-opacity:1"
           inkscape:connector-curvature="0"
           sodipodi:nodetypes="ccssccccccccccccccccccccssccccccssccccccccccccccssccccsccccccccccccccsccccccccccccccscccccccc" />
        <path
           id="path19432"
           d="m 1442.9752,-1155.007 c 2.2091,0 4,1.7909 4,4 0,2.2091 -1.7909,4 -4,4 -2.2092,0 -4,-1.7909 -4,-4 0,-2.2091 1.7908,-4 4,-4 z"
           style="display:inline;opacity:1;fill:none;fill-opacity:1;stroke:#000000;stroke-width:0.49999958;stroke-linecap:round;stroke-linejoin:round;stroke-miterlimit:4;stroke-dasharray:none;stroke-dashoffset:0;stroke-opacity:1"
           inkscape:connector-curvature="0" />
        <path
           d="m 1717.7251,-149.75891 a 2.5,2.5 0 0 1 -2.5,2.5 2.5,2.5 0 0 1 -2.5,-2.5 2.5,2.5 0 0 1 2.5,-2.5 2.5,2.5 0 0 1 2.5,2.5 z"
           style="display:inline;opacity:1;fill:none;fill-opacity:1;stroke:#000000;stroke-width:0.49999958;stroke-linecap:round;stroke-linejoin:round;stroke-miterlimit:4;stroke-dasharray:none;stroke-dashoffset:0;stroke-opacity:1"
           id="path19434"
           inkscape:connector-curvature="0" />
        <path
           d="m 1690.9746,-149.75891 a 2.5,2.5 0 0 1 -2.5,2.5 2.5,2.5 0 0 1 -2.5,-2.5 2.5,2.5 0 0 1 2.5,-2.5 2.5,2.5 0 0 1 2.5,2.5 z"
           style="display:inline;opacity:1;fill:none;fill-opacity:1;stroke:#000000;stroke-width:0.49999958;stroke-linecap:round;stroke-linejoin:round;stroke-miterlimit:4;stroke-dasharray:none;stroke-dashoffset:0;stroke-opacity:1"
           id="path19436"
           inkscape:connector-curvature="0" />
        <path
           d="m 1721.4713,-974.77131 a 2.5,2.5 0 0 1 -2.5,2.5 2.5,2.5 0 0 1 -2.5,-2.5 2.5,2.5 0 0 1 2.5,-2.5 2.5,2.5 0 0 1 2.5,2.5 z"
           style="display:inline;opacity:1;fill:none;fill-opacity:1;stroke:#000000;stroke-width:0.49999958;stroke-linecap:round;stroke-linejoin:round;stroke-miterlimit:4;stroke-dasharray:none;stroke-dashoffset:0;stroke-opacity:1"
           id="path19438"
           inkscape:connector-curvature="0" />
        <path
           d="m 1721.4713,-808.84881 a 2.5,2.5 0 0 1 -2.5,2.5 2.5,2.5 0 0 1 -2.5,-2.5 2.5,2.5 0 0 1 2.5,-2.5 2.5,2.5 0 0 1 2.5,2.5 z"
           style="display:inline;opacity:1;fill:none;fill-opacity:1;stroke:#000000;stroke-width:0.49999958;stroke-linecap:round;stroke-linejoin:round;stroke-miterlimit:4;stroke-dasharray:none;stroke-dashoffset:0;stroke-opacity:1"
           id="path19440"
           inkscape:connector-curvature="0" />
        <path
           d="m 1721.4713,-891.81001 a 2.5,2.5 0 0 1 -2.5,2.5 2.5,2.5 0 0 1 -2.5,-2.5 2.5,2.5 0 0 1 2.5,-2.5 2.5,2.5 0 0 1 2.5,2.5 z"
           style="display:inline;opacity:1;fill:none;fill-opacity:1;stroke:#000000;stroke-width:0.49999958;stroke-linecap:round;stroke-linejoin:round;stroke-miterlimit:4;stroke-dasharray:none;stroke-dashoffset:0;stroke-opacity:1"
           id="path19442"
           inkscape:connector-curvature="0" />
      </g>
    </g>
    <path
       style="display:inline;opacity:1;fill:none;fill-opacity:1;stroke:#000000;stroke-width:1.77165353;stroke-linecap:round;stroke-linejoin:round;stroke-miterlimit:4;stroke-dasharray:none;stroke-dashoffset:0;stroke-opacity:1"
       d="m 1156.293,-1501.9993 c -23.4808,0.035 -45.9932,9.362 -62.5894,25.9727 l -285.78992,285.797 -90.39622,93.9393 -65.55123,0 0,79.3715 33.66144,0 0,-8.1524 15.9449,0 0,8.1524 14.17324,0 0,16.6508 -14.17324,0 0,8.15238 -15.9449,0 0,-8.15238 -33.66144,0 0,341.57647 -31.88979,0 0,-177.17936 c -48.92213,0 -88.58275,39.65992 -88.58275,88.58275 l 0,265.76211 186.16232,0 26.43628,0 c 0,-13.69844 11.10579,-24.80317 24.80317,-24.80317 l 570.29324,0 0,-453.52983 0.1807,0 31.8898,0 0.1736,0 0,453.52983 91.7732,0 0,-31.88979 0.1807,0 122.7771,0 0,-33.66145 -8.1521,0 0,-15.94489 8.1521,0 0,-14.17324 16.6511,0 0,14.17324 8.1521,0 0,15.94489 -8.1521,0 0,33.66145 122.7767,0 0.1807,0 0,31.88979 91.7665,0 0,-453.52983 0.1807,0 31.8898,0 0.1736,0 0,453.52983 570.2996,0 c 13.6985,0 24.8032,11.10473 24.8032,24.80317 l 26.4366,0 186.162,0 0,-265.76211 c 0,-48.92283 -39.6599,-88.58275 -88.5828,-88.58275 l 0,177.17936 -31.8897,0 0,-341.57647 -33.6615,0 0,8.15238 -15.9449,0 0,-8.15238 -14.1732,0 0,-16.6508 14.1732,0 0,-8.1524 15.9449,0 0,8.1524 33.6615,0 0,-79.3715 -65.5513,0 -90.3958,-93.9393 -285.79,-285.797 c -16.5961,-16.6107 -39.1085,-25.9373 -62.5893,-25.9727 l -135.5731,0 -302.6068,253.9211 -302.6072,-253.9211 -135.5869,0 0,0 z"
       id="rect6513-0"
       inkscape:connector-curvature="0" />
    <g
       id="g19741"
       transform="matrix(3.54331,0,0,3.54331,-7588.9008,571.78516)"
       style="fill:none;stroke:#000000;stroke-width:0.49999958;stroke-linecap:round;stroke-linejoin:round;stroke-miterlimit:4;stroke-dasharray:none">
      <path
         id="path19701"
         d="m 2361.7539,-283.26758 0,9 -15.6504,0 0,22.5 2.3008,0 0,4.5 -2.3008,0 0,4 -4.6992,0 0,-4 -2.3008,0 0,-4.5 2.3008,0 0,-22.5 -15.6016,0 0,26 -0.049,0 -9,0 -0.051,0 0,-26 -24.9492,0 0,176.000002 24.9492,0 0,-26.000002 0.051,0 9,0 0.049,0 0,26.000002 13.6016,0 0,-22.500002 -2.3008,0 0,-4.5 2.3008,0 0,-4 4.6992,0 0,4 2.3008,0 0,4.5 -2.3008,0 0,22.500002 92.3008,0 0,-22.500002 -2.3008,0 0,-4.5 2.3008,0 0,-4 4.6992,0 0,4 2.3008,0 0,4.5 -2.3008,0 0,22.500002 113.3008,0 0,-22.500002 -2.3008,0 0,-4.5 2.3008,0 0,-4 4.6992,0 0,4 2.3008,0 0,4.5 -2.3008,0 0,22.500002 32.6504,0 0,5 0,4 102.9004,0 0,-9 0.1,0 60,0 0.1,0 0,9 66.9004,0 0,-9 15.6504,0 0,-22.500002 -2.3008,0 0,-4.5 2.3008,0 0,-4 4.6992,0 0,4 2.3008,0 0,4.5 -2.3008,0 0,22.500002 15.5996,0 0,-26.000002 0.051,0 9,0 0.049,0 0,26.000002 24.9512,0 0,-176.000002 -24.9512,0 0,26 -0.049,0 -9,0 -0.051,0 0,-26 -13.5996,0 0,22.5 2.3008,0 0,4.5 -2.3008,0 0,4 -4.6992,0 0,-4 -2.3008,0 0,-4.5 2.3008,0 0,-22.5 -92.3008,0 0,22.5 2.3008,0 0,4.5 -2.3008,0 0,4 -4.6992,0 0,-4 -2.3008,0 0,-4.5 2.3008,0 0,-22.5 -113.3008,0 0,22.5 2.3008,0 0,4.5 -2.3008,0 0,4 -4.6992,0 0,-4 -2.3008,0 0,-4.5 2.3008,0 0,-22.5 -32.6504,0 0,-5 0,-4 -102.9004,0 0,9 -0.1,0 -60,0 -0.1,0 0,-9 -66.9004,0 z"
         style="opacity:1;fill:none;fill-opacity:1;stroke:#000000;stroke-width:0.49999958;stroke-linecap:round;stroke-linejoin:round;stroke-miterlimit:4;stroke-dasharray:none;stroke-dashoffset:0;stroke-opacity:1"
         inkscape:connector-curvature="0" />
      <path
         inkscape:connector-curvature="0"
         id="path19699"
         d="m 2519.7035,-248.3682 9.1,0 0,26.2 -9.1,0 0,-26.2 z"
         style="opacity:1;fill:none;fill-opacity:1;stroke:#000000;stroke-width:0.49999958;stroke-linecap:round;stroke-linejoin:round;stroke-miterlimit:4;stroke-dasharray:none;stroke-dashoffset:0;stroke-opacity:1" />
      <path
         inkscape:connector-curvature="0"
         id="path19697"
         d="m 2654.7035,-248.3682 9.1,0 0,26.2 -9.1,0 0,-26.2 z"
         style="opacity:1;fill:none;fill-opacity:1;stroke:#000000;stroke-width:0.49999958;stroke-linecap:round;stroke-linejoin:round;stroke-miterlimit:4;stroke-dasharray:none;stroke-dashoffset:0;stroke-opacity:1" />
      <path
         inkscape:connector-curvature="0"
         id="path19695"
         d="m 2519.7035,-150.4014 9.1,0 0,26.2 -9.1,0 0,-26.2 z"
         style="opacity:1;fill:none;fill-opacity:1;stroke:#000000;stroke-width:0.49999958;stroke-linecap:round;stroke-linejoin:round;stroke-miterlimit:4;stroke-dasharray:none;stroke-dashoffset:0;stroke-opacity:1" />
      <path
         inkscape:connector-curvature="0"
         id="path10869"
         d="m 2654.7035,-150.4014 9.1,0 0,26.2 -9.1,0 0,-26.2 z"
         style="opacity:1;fill:none;fill-opacity:1;stroke:#000000;stroke-width:0.49999958;stroke-linecap:round;stroke-linejoin:round;stroke-miterlimit:4;stroke-dasharray:none;stroke-dashoffset:0;stroke-opacity:1" />
      <path
         d="m 2864.7534,-186.26746 a 2.5,2.5 0 0 1 -2.5,2.5 2.5,2.5 0 0 1 -2.5,-2.5 2.5,2.5 0 0 1 2.5,-2.5 2.5,2.5 0 0 1 2.5,2.5 z"
         style="display:inline;opacity:1;fill:none;fill-opacity:1;stroke:#000000;stroke-width:0.49999958;stroke-linecap:round;stroke-linejoin:round;stroke-miterlimit:4;stroke-dasharray:none;stroke-dashoffset:0;stroke-opacity:1"
         id="circle10871"
         inkscape:connector-curvature="0" />
      <path
         d="m 2323.7537,-186.26746 a 2.5,2.5 0 0 1 -2.5,2.5 2.5,2.5 0 0 1 -2.5,-2.5 2.5,2.5 0 0 1 2.5,-2.5 2.5,2.5 0 0 1 2.5,2.5 z"
         style="display:inline;opacity:1;fill:none;fill-opacity:1;stroke:#000000;stroke-width:0.49999958;stroke-linecap:round;stroke-linejoin:round;stroke-miterlimit:4;stroke-dasharray:none;stroke-dashoffset:0;stroke-opacity:1"
         id="circle10873"
         inkscape:connector-curvature="0" />
      <path
         d="m 2526.7534,-186.26746 a 2.5,2.5 0 0 1 -2.5,2.5 2.5,2.5 0 0 1 -2.5,-2.5 2.5,2.5 0 0 1 2.5,-2.5 2.5,2.5 0 0 1 2.5,2.5 z"
         style="display:inline;opacity:1;fill:none;fill-opacity:1;stroke:#000000;stroke-width:0.49999958;stroke-linecap:round;stroke-linejoin:round;stroke-miterlimit:4;stroke-dasharray:none;stroke-dashoffset:0;stroke-opacity:1"
         id="circle10875"
         inkscape:connector-curvature="0" />
      <path
         d="m 2661.7534,-186.26746 a 2.5,2.5 0 0 1 -2.5,2.5 2.5,2.5 0 0 1 -2.5,-2.5 2.5,2.5 0 0 1 2.5,-2.5 2.5,2.5 0 0 1 2.5,2.5 z"
         style="display:inline;opacity:1;fill:none;fill-opacity:1;stroke:#000000;stroke-width:0.49999958;stroke-linecap:round;stroke-linejoin:round;stroke-miterlimit:4;stroke-dasharray:none;stroke-dashoffset:0;stroke-opacity:1"
         id="circle10877"
         inkscape:connector-curvature="0" />
    </g>
    <path
       inkscape:connector-curvature="0"
       style="display:inline;opacity:1;fill:none;fill-opacity:1;stroke:#000000;stroke-width:1.77165353;stroke-linecap:round;stroke-linejoin:round;stroke-miterlimit:4;stroke-dasharray:none;stroke-dashoffset:0;stroke-opacity:1"
       d="m 599.42567,-1184.5453 c 7.8541,0 15.30391,-3.4788 20.35313,-9.495 l 15.82726,-18.8582 70.10509,0 c 23.48081,-0.035 45.99288,-9.3622 62.58903,-25.9728 l 0,0 370.82972,-370.8365 90.3959,-93.9392 65.5512,0 0,-79.3644 -33.6615,0 0,8.1524 -15.9448,0 0,-8.1524 -14.1733,0 0,-16.6507 14.1733,0 0,-8.1525 15.9448,0 0,8.1525 33.6615,0 0,-164.4039 0,-177.1794 31.8898,0 0,177.1793 c 48.9228,0 88.5827,-39.6599 88.5827,-88.5827 l 0,-265.7621 -212.5986,0 0,12.4084 c 0,6.8492 -5.5523,12.4015 -12.4016,12.4015 l -659.05561,0 0,70.8662 76.18116,0 0,112.1405 79.72448,0 0,-8.1596 15.94489,0 0,8.1596 14.17324,0 0,8.3253 0,8.3183 -14.17324,0 0,8.1596 -15.94489,0 0,-8.1596 -79.72448,0 0,129.8914 -26.57482,0 c -1.963,0 -3.54331,1.5803 -3.54331,3.5433 l 0,116.9292 c 0,1.963 1.58031,3.5433 3.54331,3.5433 l 26.57482,0 0,105.0468 79.72448,0 0,-8.1592 15.94489,0 0,8.1592 14.17324,0 0,16.6439 -14.17324,0 0,8.1592 -15.94489,0 0,-8.1592 -79.72448,0 0,138.7284 -26.57482,0 c -1.963,0 -3.54331,1.5803 -3.54331,3.5433 l 0,116.9293 c 0,1.963 1.58031,3.5433 3.54331,3.5433 l 26.57482,0 0,138.722 79.72448,0 0,-8.1525 15.94489,0 0,8.1525 14.17324,0 0,16.6507 -14.17324,0 0,8.1524 -15.94489,0 0,-8.1524 -79.72448,0 0,48.3676 -26.57482,0 c -1.963,0 -3.54331,1.5803 -3.54331,3.5433 l 0,60.2363 c 0,1.963 1.58031,3.5433 3.54331,3.5433 l 18.31856,0 z"
       id="rect5988-2" />
    <path
       id="path19757"
       d="m 2589.5477,-1184.5453 c -7.8541,0 -15.3039,-3.4788 -20.3531,-9.495 l -15.8273,-18.8582 -70.1051,0 c -23.4808,-0.035 -45.9929,-9.3622 -62.589,-25.9728 l 0,0 -370.8297,-370.8365 -90.3959,-93.9392 -65.5512,0 0,-79.3644 33.6614,0 0,8.1524 15.9449,0 0,-8.1524 14.1733,0 0,-16.6507 -14.1733,0 0,-8.1525 -15.9449,0 0,8.1525 -33.6614,0 0,-164.4039 0,-177.1794 -31.8898,0 0,177.1793 c -48.9228,0 -88.5828,-39.6599 -88.5828,-88.5827 l 0,-265.7621 212.5986,0 0,12.4084 c 0,6.8492 5.5524,12.4015 12.4016,12.4015 l 659.0557,0 0,70.8662 -76.1812,0 0,112.1405 -79.7245,0 0,-8.1596 -15.9448,0 0,8.1596 -14.1733,0 0,8.3253 0,8.3183 14.1733,0 0,8.1596 15.9448,0 0,-8.1596 79.7245,0 0,129.8914 26.5748,0 c 1.963,0 3.5434,1.5803 3.5434,3.5433 l 0,116.9292 c 0,1.963 -1.5804,3.5433 -3.5434,3.5433 l -26.5748,0 0,105.0468 -79.7245,0 0,-8.1592 -15.9448,0 0,8.1592 -14.1733,0 0,16.6439 14.1733,0 0,8.1592 15.9448,0 0,-8.1592 79.7245,0 0,138.7284 26.5748,0 c 1.963,0 3.5434,1.5803 3.5434,3.5433 l 0,116.9293 c 0,1.963 -1.5804,3.5433 -3.5434,3.5433 l -26.5748,0 0,138.722 -79.7245,0 0,-8.1525 -15.9448,0 0,8.1525 -14.1733,0 0,16.6507 14.1733,0 0,8.1524 15.9448,0 0,-8.1524 79.7245,0 0,48.3676 26.5748,0 c 1.963,0 3.5434,1.5803 3.5434,3.5433 l 0,60.2363 c 0,1.963 -1.5804,3.5433 -3.5434,3.5433 l -18.3185,0 z"
       style="display:inline;opacity:1;fill:none;fill-opacity:1;stroke:#000000;stroke-width:1.77165353;stroke-linecap:round;stroke-linejoin:round;stroke-miterlimit:4;stroke-dasharray:none;stroke-dashoffset:0;stroke-opacity:1"
       inkscape:connector-curvature="0" />
  </g>
</svg>
