<?xml version="1.0" encoding="UTF-8" standalone="no"?>
<!-- Created with Inkscape (http://www.inkscape.org/) -->

<svg
   xmlns:dc="http://purl.org/dc/elements/1.1/"
   xmlns:cc="http://creativecommons.org/ns#"
   xmlns:rdf="http://www.w3.org/1999/02/22-rdf-syntax-ns#"
   xmlns:svg="http://www.w3.org/2000/svg"
   xmlns="http://www.w3.org/2000/svg"
   xmlns:sodipodi="http://sodipodi.sourceforge.net/DTD/sodipodi-0.dtd"
   xmlns:inkscape="http://www.inkscape.org/namespaces/inkscape"
   width="900mm"
   height="1250mm"
   viewBox="0 0 3188.9764 4429.1338"
   id="svg21764"
   version="1.1"
   inkscape:version="0.91 r13725"
   sodipodi:docname="1250x900.svg">
  <defs
     id="defs21766" />
  <sodipodi:namedview
     id="base"
     pagecolor="#ffffff"
     bordercolor="#666666"
     borderopacity="1.0"
     inkscape:pageopacity="0.0"
     inkscape:pageshadow="2"
     inkscape:zoom="0.12079111"
     inkscape:cx="-1054.7134"
     inkscape:cy="2181.4519"
     inkscape:document-units="mm"
     inkscape:current-layer="layer1"
     showgrid="false"
     inkscape:window-width="1360"
     inkscape:window-height="706"
     inkscape:window-x="0"
     inkscape:window-y="0"
     inkscape:window-maximized="1" />
  <metadata
     id="metadata21769">
    <rdf:RDF>
      <cc:Work
         rdf:about="">
        <dc:format>image/svg+xml</dc:format>
        <dc:type
           rdf:resource="http://purl.org/dc/dcmitype/StillImage" />
        <dc:title></dc:title>
      </cc:Work>
    </rdf:RDF>
  </metadata>
  <g
     inkscape:label="Capa 1"
     inkscape:groupmode="layer"
     id="layer1"
     transform="translate(0,3376.7717)">
    <g
       style="font-style:normal;font-weight:normal;font-size:569.65533447px;line-height:125%;font-family:sans-serif;letter-spacing:0px;word-spacing:0px;fill:#000000;fill-opacity:1;stroke:none;stroke-width:1px;stroke-linecap:butt;stroke-linejoin:miter;stroke-opacity:1"
       id="text5641">
      <path
         d="m 370.20211,-1207.8217 q 40.33205,8.6227 62.86236,35.8816 22.80846,27.2589 22.80846,67.3128 0,61.4716 -42.2791,95.128 -42.27911,33.65641 -120.16167,33.65641 -26.14629,0 -53.9615,-5.28489 -27.53705,-5.00674 -57.02116,-15.29836 l 0,-54.23966 q 23.36477,13.6295 51.17997,20.5833 27.8152,6.9538 58.13377,6.9538 52.84889,0 80.38594,-20.8614 27.8152,-20.8614 27.8152,-60.6372 0,-36.716 -25.86814,-57.2993 -25.58998,-20.8614 -71.48507,-20.8614 l -48.39845,0 0,-46.1732 50.62367,0 q 41.44465,0 63.41866,-16.411 21.97401,-16.6891 21.97401,-47.8421 0,-31.9875 -22.80847,-48.9548 -22.53031,-17.2454 -64.80942,-17.2454 -23.08662,0 -49.51106,5.0067 -26.42444,5.0067 -58.13377,15.5765 l 0,-50.0673 q 31.98748,-8.9009 59.80268,-13.3513 28.09336,-4.4505 52.84889,-4.4505 63.97496,0 101.24733,29.206 37.27237,28.9278 37.27237,78.4389 0,34.4908 -19.74879,58.4119 -19.74879,23.6429 -56.18671,32.8219 z"
         style=""
         id="path5650" />
      <path
         d="m 563.23962,-1399.1903 220.57455,0 0,47.2859 -169.11643,0 0,101.8036 q 12.23869,-4.1723 24.47738,-6.1193 12.23869,-2.2252 24.47738,-2.2252 69.538,0 110.1482,38.1068 40.61019,38.1068 40.61019,103.1944 0,67.0346 -41.7228,104.307 -41.72281,36.99421 -117.65831,36.99421 -26.14629,0 -53.40518,-4.45044 -26.98075,-4.45043 -55.90856,-13.35129 l 0,-56.46488 q 25.03368,13.6295 51.73628,20.3051 26.70259,6.6757 56.46485,6.6757 48.1203,0 76.21366,-25.3119 28.09335,-25.3118 28.09335,-68.7035 0,-43.3917 -28.09335,-68.7036 -28.09336,-25.3118 -76.21366,-25.3118 -22.53031,0 -45.06062,5.0067 -22.25216,5.0068 -45.61693,15.5765 l 0,-208.614 z"
         style=""
         id="path5652" />
      <path
         d="m 1079.7679,-1350.2355 -141.85751,221.6871 141.85751,0 0,-221.6871 z m -14.742,-48.9548 70.6506,0 0,270.6419 59.2464,0 0,46.7296 -59.2464,0 0,97.9095 -55.9086,0 0,-97.9095 -187.47444,0 0,-54.2397 172.73244,-263.1318 z"
         style=""
         id="path5654" />
      <path
         d="m 1293.945,-1054.5599 58.6901,0 0,47.8421 -45.6169,89.00868 -35.8817,0 22.8085,-89.00868 0,-47.8421 z"
         style=""
         id="path5656" />
      <path
         d="m 1639.688,-1207.8217 q 40.332,8.6227 62.8623,35.8816 22.8085,27.2589 22.8085,67.3128 0,61.4716 -42.2791,95.128 -42.2791,33.65641 -120.1617,33.65641 -26.1463,0 -53.9615,-5.28489 -27.537,-5.00674 -57.0212,-15.29836 l 0,-54.23966 q 23.3648,13.6295 51.18,20.5833 27.8152,6.9538 58.1338,6.9538 52.8489,0 80.3859,-20.8614 27.8152,-20.8614 27.8152,-60.6372 0,-36.716 -25.8681,-57.2993 -25.59,-20.8614 -71.4851,-20.8614 l -48.3984,0 0,-46.1732 50.6236,0 q 41.4447,0 63.4187,-16.411 21.974,-16.6891 21.974,-47.8421 0,-31.9875 -22.8085,-48.9548 -22.5303,-17.2454 -64.8094,-17.2454 -23.0866,0 -49.511,5.0067 -26.4245,5.0067 -58.1338,15.5765 l 0,-50.0673 q 31.9875,-8.9009 59.8027,-13.3513 28.0933,-4.4505 52.8488,-4.4505 63.975,0 101.2474,29.206 37.2724,28.9278 37.2724,78.4389 0,34.4908 -19.7488,58.4119 -19.7488,23.6429 -56.1867,32.8219 z"
         style=""
         id="path5658" />
      <path
         d="m 2002.3982,-1207.8217 q 40.332,8.6227 62.8623,35.8816 22.8085,27.2589 22.8085,67.3128 0,61.4716 -42.2791,95.128 -42.2791,33.65641 -120.1617,33.65641 -26.1463,0 -53.9615,-5.28489 -27.537,-5.00674 -57.0212,-15.29836 l 0,-54.23966 q 23.3648,13.6295 51.18,20.5833 27.8152,6.9538 58.1338,6.9538 52.8489,0 80.3859,-20.8614 27.8152,-20.8614 27.8152,-60.6372 0,-36.716 -25.8681,-57.2993 -25.59,-20.8614 -71.4851,-20.8614 l -48.3984,0 0,-46.1732 50.6236,0 q 41.4447,0 63.4187,-16.411 21.974,-16.6891 21.974,-47.8421 0,-31.9875 -22.8085,-48.9548 -22.5303,-17.2454 -64.8094,-17.2454 -23.0866,0 -49.511,5.0067 -26.4245,5.0067 -58.1338,15.5765 l 0,-50.0673 q 31.9875,-8.9009 59.8027,-13.3513 28.0933,-4.4505 52.8489,-4.4505 63.9749,0 101.2473,29.206 37.2724,28.9278 37.2724,78.4389 0,34.4908 -19.7488,58.4119 -19.7488,23.6429 -56.1867,32.8219 z"
         style=""
         id="path5660" />
      <path
         d="m 2204.6146,-1031.1951 91.7902,0 0,-316.8152 -99.8566,20.027 0,-51.18 99.3003,-20.027 56.1867,0 0,367.9952 91.7902,0 0,47.2858 -239.2108,0 0,-47.2858 z"
         style=""
         id="path5662" />
      <path
         d="m 2910.8426,-1166.6552 q -24.1992,0 -38.1068,20.5833 -13.6295,20.5832 -13.6295,57.2993 0,36.1597 13.6295,57.0212 13.9076,20.5832 38.1068,20.5832 23.6429,0 37.2724,-20.5832 13.9076,-20.8615 13.9076,-57.0212 0,-36.4379 -13.9076,-57.0212 -13.6295,-20.8614 -37.2724,-20.8614 z m 0,-35.3253 q 43.948,0 69.8162,30.5967 25.8681,30.5968 25.8681,82.6112 0,52.0144 -26.1463,82.6111 -25.8681,30.31861 -69.538,30.31861 -44.5043,0 -70.3725,-30.31861 -25.8681,-30.5967 -25.8681,-82.6111 0,-52.2926 25.8681,-82.6112 26.1463,-30.5967 70.3725,-30.5967 z m -287.0529,-169.3946 q -23.9211,0 -37.8287,20.8614 -13.6294,20.5833 -13.6294,56.743 0,36.7161 13.6294,57.2994 13.6295,20.5832 37.8287,20.5832 24.1992,0 37.8287,-20.5832 13.9076,-20.5833 13.9076,-57.2994 0,-35.8816 -13.9076,-56.743 -13.9076,-20.8614 -37.8287,-20.8614 z m 251.1713,-35.3253 44.5043,0 -259.794,430.85751 -44.5043,0 259.794,-430.85751 z m -251.1713,0 q 43.948,0 70.0943,30.5968 26.1463,30.3185 26.1463,82.3329 0,52.5708 -26.1463,82.8894 -25.8681,30.3185 -70.0943,30.3185 -44.2262,0 -70.0943,-30.3185 -25.59,-30.5968 -25.59,-82.8894 0,-51.7362 25.8682,-82.3329 25.8681,-30.5968 69.8161,-30.5968 z"
         style=""
         id="path5664" />
    </g>
  </g>
</svg>
